<svg version="1.1" id="Layer_1" xmlns="http://www.w3.org/2000/svg" xmlns:xlink="http://www.w3.org/1999/xlink" x="0px" y="0px"
	 width="100%" viewBox="0 0 500 500" enable-background="new 0 0 500 500" xml:space="preserve">
<path fill="#022630" opacity="1.000000" stroke="none" 
	d="
M233.000000,501.000000 
	C155.333359,501.000000 78.166702,501.000000 1.000041,501.000000 
	C1.000028,334.333405 1.000028,167.666779 1.000014,1.000131 
	C167.666565,1.000087 334.333130,1.000087 500.999756,1.000044 
	C500.999847,167.666519 500.999847,334.333038 500.999939,500.999786 
	C411.833344,501.000000 322.666656,501.000000 233.000000,501.000000 
M285.986359,305.726196 
	C285.742706,306.050964 285.499023,306.375763 284.696472,306.907806 
	C284.511658,307.210907 284.326843,307.514008 283.206909,308.425049 
	C283.506683,308.963287 283.806488,309.501495 284.093384,309.142700 
	C280.668335,311.251862 277.243286,313.360992 273.255310,315.689423 
	C272.822510,316.078705 272.389709,316.467957 271.286987,317.025696 
	C269.517700,318.067719 267.748444,319.109741 265.466339,320.164459 
	C265.255432,320.425720 265.044495,320.687012 264.232727,320.982635 
	C263.517609,321.308899 262.802521,321.635162 261.949432,321.630493 
	C261.787048,321.388885 261.624695,321.147308 261.462311,320.905701 
	C261.390991,321.272003 261.319702,321.638275 260.731750,322.526306 
	C257.477295,323.754700 254.222824,324.983093 250.452103,326.218018 
	C250.204208,326.447113 249.956314,326.676208 248.918442,326.923126 
	C244.935425,327.667267 240.952408,328.411407 236.285629,329.061981 
	C235.200287,329.377533 234.114944,329.693054 232.223907,329.937531 
	C231.149155,330.001648 230.074417,330.065765 228.101883,330.000061 
	C216.181808,330.240601 204.787048,327.607849 193.879883,323.093170 
	C174.501663,315.072113 160.480530,301.187317 151.182999,282.527710 
	C149.060211,278.267426 147.435043,273.701782 146.091446,269.126740 
	C144.747513,264.550568 143.662704,259.826538 143.164841,255.093643 
	C142.662415,250.317276 143.404114,245.408798 142.886200,240.635727 
	C142.429184,236.423981 143.794983,232.447433 144.653473,228.739914 
	C152.391403,195.323105 173.177032,173.902100 206.138138,164.519623 
	C212.269302,162.774368 218.718872,162.147568 225.016846,161.765686 
	C223.645737,169.175262 226.959198,174.344955 233.206009,174.542465 
	C226.594070,168.954788 226.709961,166.735352 228.883636,162.512039 
	C229.997498,160.347885 232.979797,158.689621 235.472244,157.825912 
	C237.721024,157.046631 240.452896,157.661438 242.971725,157.661438 
	C241.526306,156.380402 239.759918,155.302109 237.880081,155.041306 
	C232.352646,154.274445 228.647461,157.777115 224.567139,160.338806 
	C223.584534,160.216949 222.595139,159.949432 221.620316,159.994797 
	C203.320984,160.846558 187.198181,167.392883 172.796249,178.559341 
	C171.445709,179.606491 169.508240,179.896667 168.450760,180.039490 
	C169.504623,178.945602 170.558487,177.851715 172.125229,176.309540 
	C173.032913,174.533279 173.940582,172.757019 174.848267,170.980774 
	C174.440231,170.802597 174.032196,170.624435 173.624161,170.446259 
	C172.661301,172.213409 171.698425,173.980545 170.140518,176.087616 
	C168.845810,177.566711 167.551102,179.045807 165.875534,180.676041 
	C165.618362,180.833313 165.487335,181.062637 164.943176,181.589645 
	C164.267700,182.086777 163.592239,182.583893 162.240540,182.945007 
	C162.062042,182.212357 161.883545,181.479706 161.661102,180.566620 
	C150.453644,188.189285 143.000336,198.315948 139.427933,210.968216 
	C138.452454,214.423065 137.411804,215.932129 133.908661,216.436172 
	C131.042938,216.848526 127.632545,217.742340 128.047684,221.833847 
	C128.429794,225.599609 131.185989,227.046585 134.193512,227.705811 
	C132.965485,225.710236 131.747803,223.731491 130.530136,221.752747 
	C132.738220,221.128036 134.919418,220.122177 137.160431,219.964066 
	C140.936005,219.697708 142.200729,217.333450 142.956085,214.250412 
	C145.818283,202.567947 150.949326,192.170074 160.156006,184.127289 
	C160.881973,183.493103 162.041260,183.354935 163.110779,183.697144 
	C163.919312,183.412628 164.727829,183.128098 166.119080,183.624451 
	C163.740952,186.570206 161.293472,189.462997 158.996964,192.471054 
	C150.054077,204.184708 143.600449,216.990662 141.498032,232.021606 
	C141.498032,232.021606 141.028427,231.962921 141.034164,231.085342 
	C141.028534,229.476044 140.984344,227.865753 141.025757,226.257660 
	C141.100235,223.364120 139.663544,222.536575 136.452133,223.236069 
	C136.095047,223.644958 135.737961,224.053833 135.380875,224.462708 
	C135.926254,224.593185 136.471634,224.723648 137.580719,224.994995 
	C137.774399,224.995468 137.968063,224.995956 138.551147,225.810196 
	C138.074890,228.887314 137.598618,231.964417 136.994476,235.868393 
	C135.019455,247.704559 134.177383,259.490540 137.558167,271.277893 
	C139.124557,276.739258 143.965454,282.422516 137.333908,287.925629 
	C137.179932,288.053406 138.275940,290.257263 139.199600,290.922302 
	C139.863388,291.400238 141.212326,290.926605 142.643494,290.859222 
	C141.554062,289.920624 140.873230,289.334045 139.403793,288.068085 
	C141.434616,287.583221 142.730194,287.273895 144.448441,287.548523 
	C145.616486,287.737366 146.784531,287.926208 148.052063,288.632965 
	C148.414001,289.225281 148.775940,289.817566 149.523361,291.008301 
	C164.107071,307.062683 179.726807,321.693268 201.482101,328.416229 
	C196.443710,329.330231 196.443710,329.330231 196.522873,331.744110 
	C198.108582,331.520691 200.039764,330.637848 201.482697,331.144806 
	C210.620514,334.354919 219.844315,331.434753 229.872009,331.993683 
	C233.590805,331.610992 237.309601,331.228271 241.800629,330.899841 
	C242.555283,330.922363 243.309952,330.944885 243.596802,331.605499 
	C234.015793,333.045624 224.434784,334.485748 214.370239,335.998566 
	C216.180893,335.998566 217.594315,335.998566 219.688705,336.290375 
	C222.111526,336.188812 224.534363,336.087219 227.844498,336.051758 
	C233.646103,335.137665 239.524445,334.552734 245.229019,333.222504 
	C251.723282,331.708191 257.546753,331.222107 261.583710,337.915741 
	C262.131134,338.823395 263.265900,339.442963 264.234619,340.017334 
	C266.653992,341.451904 267.930603,340.702454 268.213165,337.427948 
	C268.132477,336.442383 268.051788,335.456787 267.294586,334.419464 
	C266.895325,335.578583 266.496033,336.737671 265.948364,338.327576 
	C262.192108,334.184967 258.843201,330.491638 255.659683,326.980682 
	C256.437744,326.759277 257.959259,326.326294 259.299164,325.945038 
	C260.463531,328.065765 261.445282,329.853882 261.842896,330.578125 
	C267.241180,325.294189 274.253906,322.369324 279.923859,318.615021 
	C279.390503,319.265320 278.857147,319.915619 278.323792,320.565918 
	C278.544861,320.823151 278.765961,321.080383 278.987061,321.337616 
	C280.130859,320.499237 281.274658,319.660858 282.717834,318.731110 
	C282.717834,318.731110 282.812988,318.432892 283.293152,318.093811 
	C284.610718,316.469940 285.928284,314.846069 287.806061,312.865356 
	C291.328857,309.102539 295.447723,305.731842 298.239532,301.488159 
	C302.818909,294.527222 308.105743,290.247253 316.977814,291.868103 
	C318.454895,292.137939 321.549164,290.667603 321.685547,289.692291 
	C321.974792,287.623627 320.807220,285.351227 320.236969,283.162354 
	C319.841095,283.290070 319.445251,283.417786 319.049377,283.545502 
	C319.392639,285.231659 319.735901,286.917816 320.144348,288.924255 
	C317.415192,288.924255 315.266632,288.918182 313.118103,288.925690 
	C309.731079,288.937469 306.344025,288.958374 302.572754,288.717926 
	C302.332672,288.516968 302.141998,288.276764 302.169495,287.276978 
	C304.096893,282.566071 308.418427,288.281006 311.014221,284.930817 
	C310.059570,284.361145 309.133789,283.808685 308.928345,283.686096 
	C310.014343,278.135010 311.006439,273.063812 312.384430,267.492920 
	C312.523438,266.678558 312.662445,265.864166 312.969818,264.177338 
	C312.646698,260.784943 312.323578,257.392578 312.362396,253.263550 
	C312.564056,251.283295 312.955109,249.301270 312.936584,247.323074 
	C312.817383,234.606537 310.341125,222.401794 305.236328,210.692596 
	C299.978271,198.631851 306.823486,188.046799 319.276245,188.639008 
	C309.814911,183.464813 302.568115,189.893433 301.714264,199.314362 
	C299.130951,196.108383 296.175995,192.441147 292.992889,188.331970 
	C292.744385,188.095810 292.451019,187.949753 291.822021,187.353561 
	C291.298462,187.298096 290.774933,187.242645 289.395630,187.096542 
	C290.533295,188.048965 291.000366,188.439987 291.661499,189.083923 
	C291.805176,189.243256 291.965942,189.382919 292.550232,190.084915 
	C304.350067,209.051498 311.500702,229.342606 310.037231,252.900574 
	C307.680206,262.228638 305.323151,271.556671 302.216553,280.965668 
	C300.084534,280.052948 297.952545,279.140228 295.820557,278.227478 
	C296.141876,277.994629 296.463196,277.761749 296.784515,277.528870 
	C296.176422,276.347565 295.568329,275.166260 294.960236,273.343506 
	C293.652954,272.712952 292.345673,272.082397 290.958038,271.413086 
	C293.921265,267.264404 297.553040,266.705475 302.862549,269.360535 
	C302.310547,271.089081 301.748779,272.848175 301.187012,274.607269 
	C301.621674,274.751617 302.056305,274.895966 302.490967,275.040344 
	C303.292236,272.695557 304.979828,270.179108 304.571045,268.068695 
	C304.315125,266.747437 300.956635,265.899353 298.886536,265.111420 
	C297.853973,264.718384 296.588013,264.945557 295.428467,264.877808 
	C291.167847,264.628998 289.238556,267.384155 289.125610,270.906342 
	C288.992981,275.043396 292.523285,273.883942 295.631775,274.438141 
	C294.548584,275.817444 293.465393,277.196716 291.733185,279.402435 
	C295.492920,280.381805 298.693390,281.215515 301.910553,282.759827 
	C301.809265,283.066742 301.771362,283.416351 301.597412,283.674316 
	C296.664246,290.991760 291.717346,298.300018 286.735504,305.647278 
	C286.735504,305.647278 286.658875,305.727631 285.986359,305.726196 
M286.851379,283.643707 
	C285.206848,285.687378 283.562347,287.731018 281.917816,289.774689 
	C282.309265,290.067535 282.700714,290.360352 283.092194,290.653198 
	C284.803955,288.505524 286.515747,286.357819 288.830566,283.772949 
	C289.291718,281.843231 289.752838,279.913544 290.213959,277.983826 
	C289.981323,277.950806 289.748688,277.917816 289.516052,277.884796 
	C288.784271,279.645203 288.052490,281.405640 286.851379,283.643707 
M195.212051,272.707581 
	C194.622833,270.983459 194.033615,269.259369 193.444382,267.535248 
	C193.061661,267.686218 192.678940,267.837189 192.296204,267.988190 
	C193.116119,270.068970 193.936020,272.149750 194.966934,274.871643 
	C198.615509,278.444672 202.365097,281.922699 205.861206,285.639130 
	C207.195648,287.057648 208.874298,289.121063 208.704941,290.710419 
	C208.538940,292.268372 206.223038,293.597321 204.977844,294.894318 
	C208.350677,295.556366 209.779892,294.757416 211.372375,291.318939 
	C212.708603,288.433807 211.927383,286.336945 209.496506,284.441559 
	C204.818100,280.793701 200.251160,277.002930 195.212051,272.707581 
M216.962769,199.113602 
	C217.171799,191.313538 217.248154,191.396378 224.816101,189.887482 
	C229.760239,188.901718 234.609344,187.439285 239.501007,186.190369 
	C239.385574,185.696564 239.270157,185.202774 239.154739,184.708969 
	C230.757202,185.799362 222.359650,186.889740 213.131058,187.931259 
	C211.821243,188.093613 210.472397,188.107498 209.207367,188.440155 
	C181.457382,195.737396 161.751465,224.776550 166.801132,254.996109 
	C174.168991,299.088806 225.344101,320.161835 261.056671,293.272247 
	C267.987457,288.053741 273.651123,281.764099 276.688843,273.441559 
	C275.965912,273.785828 275.472809,274.320190 275.036774,274.897644 
	C268.915527,283.004303 262.587250,290.881348 253.166885,294.375336 
	C256.158661,290.875000 255.534286,287.609406 252.207764,284.875824 
	C249.205811,282.408936 245.883652,282.039825 242.748947,284.774872 
	C239.444412,287.658051 239.089478,292.011108 241.319214,295.746429 
	C242.009109,293.279053 242.244431,289.945953 243.895859,287.616974 
	C244.682465,286.507660 248.326340,286.808990 250.351257,287.468323 
	C251.280304,287.770874 252.168320,290.754913 251.698456,292.005951 
	C251.308319,293.044678 248.902328,293.326233 246.158020,294.445343 
	C248.976730,294.670959 250.989319,294.832062 252.752274,295.661316 
	C224.737946,310.985779 192.543808,300.551208 176.906509,276.145416 
	C160.640213,250.757919 168.606613,219.202469 186.507477,204.323196 
	C187.288300,205.738007 188.090866,207.144745 188.849167,208.574966 
	C191.206833,213.021774 190.782944,217.397980 187.727066,219.375977 
	C183.759125,221.944336 181.536652,219.182495 178.865570,216.648254 
	C179.491180,219.020172 180.493423,222.224792 181.953064,222.448776 
	C184.696457,222.869797 188.246582,222.357468 190.485733,220.816101 
	C194.787903,217.854614 193.288025,213.410797 191.977371,210.312988 
	C196.168976,207.482773 200.085632,204.838211 204.002289,202.193649 
	C203.775131,201.808044 203.547989,201.422455 203.320847,201.036850 
	C200.455887,202.432877 197.590912,203.828903 194.713501,205.230988 
	C193.893265,202.851440 193.238022,200.950500 192.201630,197.943817 
	C199.759308,194.931519 207.369293,191.898361 215.622406,188.977280 
	C215.742661,192.649551 215.862915,196.321808 215.266144,199.961273 
	C214.596436,199.536591 213.755692,199.250183 213.283371,198.665924 
	C208.350555,192.564270 206.173569,192.231384 199.255753,197.395065 
	C205.227478,194.003021 208.729797,196.737000 211.983398,201.227722 
	C212.726593,202.253525 215.884796,202.616089 217.147842,201.900574 
	C218.686752,201.028778 219.397583,198.695282 220.466583,196.994003 
	C220.169418,196.835342 219.872253,196.676666 219.575089,196.517990 
	C218.750809,197.659485 217.926514,198.800980 216.962769,199.113602 
M253.234848,180.110855 
	C247.771500,179.184540 242.308136,178.258240 236.844788,177.331924 
	C236.767273,177.742203 236.689774,178.152496 236.612274,178.562775 
	C237.327438,178.741348 238.034988,178.962524 238.758926,179.092087 
	C248.753464,180.880707 257.178619,185.136505 262.404724,194.298645 
	C264.584412,198.119980 267.995544,199.319107 271.467865,199.474426 
	C268.755707,196.295822 265.903534,192.953171 263.770142,188.942459 
	C265.275909,190.162842 267.066772,191.159897 268.231873,192.647156 
	C271.241638,196.489227 274.966553,197.756104 278.063934,197.046478 
	C275.645813,195.075180 272.392334,192.686508 269.454742,189.957794 
	C266.179840,186.915710 263.253082,183.502518 260.064697,180.362656 
	C255.523392,175.890488 249.878784,174.727631 243.556488,175.035843 
	C247.211182,176.771378 250.636322,178.397919 253.234848,180.110855 
M472.631500,305.014526 
	C477.054962,302.667877 478.102661,298.438934 476.755249,294.416046 
	C476.005341,292.177216 472.800751,289.788849 470.343140,289.309296 
	C466.085724,288.478516 461.549011,289.078674 457.082642,289.078674 
	C454.980042,301.241669 452.957123,312.943756 450.884216,324.934906 
	C455.742920,324.934906 460.049530,324.994171 464.352448,324.894867 
	C465.482758,324.868774 466.639435,324.451324 467.719818,324.043549 
	C475.234894,321.207214 477.067963,313.828339 471.866943,307.990173 
	C471.386932,307.451355 471.922546,306.007751 471.912720,304.999237 
	C471.912720,304.999237 471.906708,305.074371 472.631500,305.014526 
M41.905529,205.654144 
	C41.881916,203.823044 42.460217,201.660431 41.680958,200.245499 
	C40.726227,198.511932 38.627285,196.316315 37.037601,196.327835 
	C35.405193,196.339676 33.644005,198.642044 32.245071,200.214203 
	C31.737289,200.784866 32.089344,202.141724 32.089149,203.139862 
	C32.084560,226.952606 32.084667,250.765350 32.087986,274.578094 
	C32.088123,275.576660 31.719870,276.939270 32.225327,277.505127 
	C33.709705,279.166718 35.446526,281.468506 37.282177,281.664062 
	C38.638588,281.808594 40.679363,279.266022 41.708435,277.507141 
	C42.465996,276.212280 42.081177,274.249084 42.257229,271.889130 
	C52.292416,287.015625 77.279243,285.250641 84.469604,265.652985 
	C88.049034,255.897110 88.150826,246.082001 84.180496,236.413315 
	C79.781097,225.699783 70.230019,220.017075 58.761841,221.087036 
	C51.956173,221.722031 46.636959,225.026474 41.905518,231.717804 
	C41.905518,222.423859 41.905518,214.518723 41.905529,205.654144 
M395.689758,230.245224 
	C401.795074,224.267761 410.595581,222.268951 416.591370,225.931915 
	C423.357452,230.065430 421.469452,236.532211 420.323456,242.548248 
	C418.284271,253.253510 416.040039,263.919708 413.855743,274.729919 
	C416.121857,274.729919 417.873505,274.729919 419.599213,274.729919 
	C420.724335,269.411652 421.870270,264.390869 422.836700,259.335754 
	C424.366058,251.336197 426.322693,243.366028 427.095398,235.287476 
	C428.043732,225.373108 422.459442,219.692719 412.489502,219.039932 
	C403.941528,218.480240 396.960938,221.572418 391.508331,228.222427 
	C385.128143,217.229141 376.784576,216.354919 358.540649,224.651764 
	C358.658875,223.116745 358.766541,221.719009 358.902252,219.956985 
	C356.868561,220.049469 355.150482,220.127609 353.511261,220.202148 
	C349.672821,238.689697 345.941986,256.659210 342.159973,274.875031 
	C344.346893,274.875031 345.976227,274.875031 347.916473,274.875031 
	C350.283875,263.458649 352.194855,251.974899 355.208740,240.788315 
	C356.473328,236.094650 359.259766,231.142654 362.806030,227.891617 
	C367.890015,223.230835 374.795654,222.650513 381.019501,226.024216 
	C387.066284,229.301910 385.759003,235.257233 384.927917,240.744751 
	C384.803680,241.564941 384.554596,242.365433 384.389099,243.180267 
	C382.257690,253.675262 380.131042,264.171204 377.984161,274.760498 
	C380.300781,274.760498 382.067108,274.760498 383.845123,274.760498 
	C384.971130,269.131683 385.812225,263.688934 387.176544,258.380707 
	C389.558777,249.112091 389.443359,239.098892 395.689758,230.245224 
M469.842651,240.352753 
	C475.949707,233.834213 482.056732,227.315674 488.425018,220.518295 
	C484.382385,219.285965 481.800537,220.188049 479.284363,223.009308 
	C473.542694,229.447220 467.456146,235.577530 461.144806,242.216690 
	C457.651154,235.929230 454.109528,230.117935 451.150391,224.023788 
	C449.307892,220.229263 447.027771,219.045227 442.935333,220.552032 
	C447.750977,229.299530 452.454346,237.843048 457.165253,246.400284 
	C448.240234,255.894058 439.546875,265.141388 430.624359,274.632477 
	C439.687439,276.880280 441.814819,269.152863 446.192993,265.227814 
	C450.935760,260.975922 455.051300,256.024445 459.756989,251.042831 
	C463.646423,258.044525 467.429169,264.308502 470.643890,270.851562 
	C472.491974,274.613037 474.726807,276.018738 478.923126,274.508301 
	C473.825989,265.245544 468.799469,256.111145 463.719299,246.879272 
	C465.726654,244.734238 467.537842,242.798828 469.842651,240.352753 
M166.845200,270.642517 
	C179.076035,300.484894 212.660873,316.467133 243.865463,307.572418 
	C276.612000,298.238190 293.414429,264.983856 290.178802,242.432419 
	C288.056641,250.673767 287.005859,259.257996 284.183929,267.214020 
	C274.276764,295.146210 245.435425,312.251953 215.178528,306.779694 
	C180.042374,300.425049 159.127258,267.359589 164.917419,234.947021 
	C169.772644,207.768066 190.832703,187.254562 217.965546,183.872543 
	C219.928818,183.627808 221.816513,182.776672 223.739349,182.207489 
	C223.581146,181.620712 223.422943,181.033920 223.264725,180.447144 
	C217.916382,181.569839 212.461166,182.330673 207.237000,183.873795 
	C172.613464,194.101044 151.633484,232.717896 166.845200,270.642517 
M108.148918,281.772034 
	C109.169373,279.892822 111.048805,278.025726 111.075592,276.132477 
	C111.308418,259.676300 111.191559,243.215363 111.222900,226.755936 
	C111.229134,223.480820 110.159042,221.067169 106.523758,221.075562 
	C102.944359,221.083832 101.753220,223.405090 101.760040,226.720062 
	C101.793877,243.179474 101.798859,259.639069 101.754631,276.098419 
	C101.744308,279.938934 103.217873,282.144043 108.148918,281.772034 
M287.658295,225.142731 
	C288.171600,226.246140 289.392670,227.948730 289.062836,228.338303 
	C288.148712,229.418015 286.569458,230.615799 285.286987,230.579178 
	C280.821655,230.451691 278.737579,227.736603 280.055389,223.062759 
	C281.428833,218.191589 283.667297,213.559174 285.602844,208.853333 
	C287.102936,205.206284 289.146179,201.714157 290.093414,197.938751 
	C290.530823,196.195496 289.540833,193.095703 288.135162,192.075821 
	C283.940399,189.032349 279.219879,186.713501 274.704712,184.111633 
	C276.937622,187.217926 279.626526,189.752350 282.529175,192.012207 
	C285.832916,194.584335 287.004120,197.376022 285.123749,201.464050 
	C282.438446,207.302216 280.522308,213.526581 277.470123,219.147491 
	C276.268005,221.361328 273.079376,223.017166 270.457642,223.808960 
	C267.103851,224.821838 264.240082,222.756897 264.341187,219.295990 
	C264.382019,217.897888 267.528168,216.590485 269.705750,214.895813 
	C268.056000,212.789597 265.418365,213.835373 263.113068,215.249268 
	C259.784637,217.290680 260.573792,220.358704 261.971863,223.150635 
	C264.247284,227.694580 268.336792,228.275742 275.452240,225.292618 
	C277.607147,233.068604 282.381561,236.386490 288.588440,233.810394 
	C290.212585,233.136307 291.606232,230.535782 291.958191,228.610214 
	C292.229767,227.124390 291.074432,224.906540 289.847687,223.789093 
	C289.071320,223.081924 286.998566,223.798035 285.507233,223.875809 
	C285.527008,224.273254 285.546753,224.670700 285.566498,225.068146 
	C286.049408,225.068146 286.532349,225.068146 287.658295,225.142731 
M270.436371,177.995056 
	C274.137665,176.381729 277.838989,174.768417 282.863068,172.578537 
	C285.020477,173.558472 288.829071,175.553909 292.842407,176.968430 
	C294.260529,177.468262 296.178680,176.549576 297.868530,176.278519 
	C296.959808,174.795868 296.404144,172.656067 295.080841,171.945084 
	C289.561218,168.979462 283.801208,166.463348 278.148193,163.743210 
	C274.199097,161.842911 270.433014,161.538467 266.289612,163.633865 
	C264.053741,164.764603 261.197540,164.999420 258.614716,165.026733 
	C255.617065,165.058441 252.612289,164.419586 248.892807,163.988617 
	C256.380219,168.717010 263.359070,170.293533 270.834320,165.938614 
	C271.786713,165.383789 273.228699,164.802597 274.111053,165.130127 
	C281.752411,167.966583 289.317627,171.008316 296.905487,173.988922 
	C296.576630,174.780548 296.247772,175.572174 295.918915,176.363800 
	C292.805298,174.974564 289.442993,173.964691 286.628113,172.119614 
	C280.130310,167.860413 273.808746,167.864304 267.020111,171.349869 
	C265.406860,172.178177 262.704346,172.303741 261.110626,171.518692 
	C251.508850,166.788910 241.700989,167.089691 231.665909,170.233566 
	C234.252548,170.756226 236.856049,170.661545 239.450226,170.776947 
	C244.120682,170.984711 249.590179,169.863052 253.283691,171.905197 
	C260.759979,176.038834 267.340149,176.262436 274.387604,171.885315 
	C274.719330,171.679291 275.228516,171.759018 275.655060,171.705673 
	C275.902191,172.073959 276.149323,172.442245 276.396454,172.810532 
	C274.264862,174.445511 272.133270,176.080505 270.436371,177.995056 
M420.748444,325.044922 
	C422.408783,325.042480 424.069580,325.064392 425.729401,325.033691 
	C438.690155,324.793793 447.075867,316.283264 447.187836,303.267944 
	C447.255707,295.376648 443.632721,290.509094 435.883392,289.407745 
	C431.239349,288.747711 426.424927,289.286560 421.526245,289.286560 
	C419.468414,301.253510 417.461273,312.925598 415.377228,325.044891 
	C417.241547,325.044891 418.540955,325.044891 420.748444,325.044922 
M185.418045,324.053986 
	C176.002762,317.648987 166.587463,311.243988 157.172180,304.838989 
	C158.196884,307.184448 159.568481,309.270447 161.449097,310.674591 
	C169.258179,316.505127 177.091690,322.323425 185.193451,327.730927 
	C188.247879,329.769531 190.336670,331.717102 190.023514,335.580383 
	C189.936569,336.653076 190.314636,337.763458 190.596573,339.634399 
	C193.885101,338.789032 196.782150,338.044312 199.679199,337.299561 
	C199.585846,336.902435 199.492508,336.505280 199.399155,336.108154 
	C197.401321,336.397491 195.403473,336.686829 192.721359,337.075256 
	C194.366714,330.345062 192.248245,326.161316 185.418045,324.053986 
M315.911560,271.174408 
	C319.654877,259.721527 317.760803,245.731888 331.050476,238.554352 
	C333.518890,237.221176 332.242798,235.043518 329.810822,234.355118 
	C328.416382,233.960403 326.866943,234.113434 325.387268,234.019897 
	C325.390442,234.205200 325.393585,234.390518 325.396759,234.575821 
	C326.903778,235.080017 328.410797,235.584213 330.953583,236.434937 
	C327.579956,238.613647 325.119507,240.518219 322.392029,241.893097 
	C317.840179,244.187622 316.144257,247.829239 315.927643,252.725510 
	C315.694305,257.999298 314.992096,263.251984 314.508667,268.515198 
	C314.294098,270.851166 314.114288,273.190338 313.918732,275.528076 
	C314.149384,275.545044 314.380066,275.562042 314.610748,275.579010 
	C314.939087,274.346283 315.267395,273.113586 315.911560,271.174408 
M254.200836,150.989777 
	C253.756836,151.096725 253.312820,151.203659 252.868820,151.310593 
	C252.931519,151.464447 252.958572,151.720764 253.062241,151.756790 
	C254.607635,152.294312 256.163177,152.802689 257.431549,153.223480 
	C255.920227,156.232788 254.418716,159.222534 252.834747,162.376495 
	C262.121185,164.039780 264.448914,163.183044 268.003845,157.198486 
	C269.595490,157.627106 271.173920,158.052155 272.752319,158.477188 
	C272.930176,157.915405 273.108032,157.353607 273.285919,156.791809 
	C267.170593,154.858521 261.055267,152.925232 254.200836,150.989777 
M111.967232,199.676743 
	C110.612419,198.817200 109.144676,197.114227 107.926788,197.277313 
	C105.543159,197.596451 102.643860,198.397446 101.214516,200.071686 
	C100.164429,201.301727 100.296562,204.908722 101.386833,206.243103 
	C102.673981,207.818420 105.582779,208.827774 107.748856,208.762650 
	C111.839203,208.639618 113.349403,205.418655 111.967232,199.676743 
M204.981949,316.580811 
	C205.248489,317.265198 205.515030,317.949585 206.210861,319.736206 
	C206.403183,317.554932 206.423035,316.594482 206.587097,315.659302 
	C206.782837,314.543518 207.102112,313.449402 207.364655,312.359253 
	C214.808151,313.610809 216.641144,312.670929 214.169235,320.815247 
	C212.204498,320.950836 210.239746,321.086426 207.301315,321.289185 
	C216.375214,324.311035 218.834793,322.805237 218.930099,314.871521 
	C218.945053,313.625977 218.070206,311.460449 217.246811,311.269043 
	C213.359589,310.365509 209.347153,310.000671 204.972122,309.386597 
	C204.972122,312.211090 204.972122,314.024689 204.981949,316.580811 
M228.002930,289.065643 
	C231.384064,288.288666 234.785233,288.288330 234.952515,292.676941 
	C235.020126,294.451050 232.808609,296.312042 231.231949,298.757446 
	C233.486694,297.627228 237.460464,296.595337 237.501160,295.426514 
	C237.604050,292.471924 236.805756,288.459930 234.779922,286.695801 
	C231.678970,283.995422 227.452866,285.225922 224.471863,288.090210 
	C221.477173,290.967651 221.204025,294.510498 222.530777,297.668060 
	C224.084671,294.904175 225.649109,292.121582 228.002930,289.065643 
M173.871231,234.673691 
	C174.070450,234.407394 174.335220,234.165161 174.445038,233.866043 
	C174.514221,233.677567 174.351425,233.403961 173.890976,231.558380 
	C172.582916,234.419907 171.031143,236.240662 171.218277,237.860519 
	C171.395248,239.392319 173.163055,241.067780 174.647354,242.052994 
	C177.752686,244.114120 180.380844,242.353165 182.532715,240.128372 
	C185.768539,236.782913 186.139526,232.565002 184.442688,228.582642 
	C183.015961,225.234116 180.108673,223.265671 175.734985,224.317947 
	C182.564484,226.636963 184.890427,232.495316 180.885834,237.303436 
	C179.785095,238.625046 177.494171,239.679718 175.854919,239.547607 
	C174.921783,239.472397 174.202087,236.749084 173.871231,234.673691 
M166.668106,283.290985 
	C167.820221,285.428406 168.972351,287.565826 170.042084,289.550415 
	C167.020401,294.481079 163.868591,292.739655 160.385361,289.519470 
	C163.175888,296.626465 164.646362,297.224762 170.065964,294.093384 
	C174.979340,291.254486 175.104950,290.662811 171.849609,286.320465 
	C171.157990,285.397919 170.732513,284.233185 169.922180,283.452057 
	C168.618820,282.195648 166.861191,280.055603 165.722351,280.297607 
	C163.966492,280.670715 162.571335,282.741333 161.023163,284.091888 
	C161.237823,284.314392 161.452484,284.536865 161.667130,284.759338 
	C163.155640,284.131042 164.644165,283.502716 166.668106,283.290985 
M181.053467,257.102905 
	C180.730255,253.188766 180.705154,249.178818 184.685104,247.074661 
	C186.366409,246.185760 188.726685,246.581055 191.798370,246.298950 
	C190.057663,245.382355 188.783340,244.226456 187.395752,244.069061 
	C182.720490,243.538788 177.660965,247.825455 178.190842,252.829300 
	C178.708115,257.714417 180.893448,262.422943 182.346497,267.208984 
	C182.881149,267.034668 183.415787,266.860352 183.950439,266.686035 
	C183.553925,265.322479 183.181503,263.951294 182.754578,262.597321 
	C182.261261,261.032867 181.719940,259.483551 181.053467,257.102905 
M266.381653,314.685242 
	C268.036896,313.614380 269.692108,312.543488 271.480591,311.386414 
	C270.295715,309.896942 269.651123,309.146576 269.071930,308.348724 
	C265.547302,303.493469 262.240356,302.812958 257.584747,306.289093 
	C256.743134,306.917480 255.931610,308.701019 256.248566,309.495483 
	C256.684021,310.586945 258.154083,311.332794 259.297668,312.037018 
	C259.679657,312.272217 260.420349,311.924988 261.238892,311.810059 
	C260.078400,310.877808 259.195282,310.168396 258.155029,309.332733 
	C262.632050,306.123352 265.627441,307.049011 267.756378,311.618652 
	C266.457733,312.636383 265.229950,313.598602 263.542511,314.921021 
	C264.777588,314.921021 265.266083,314.921021 266.381653,314.685242 
M297.109680,206.607391 
	C296.743866,206.273544 296.402466,205.904800 295.999939,205.623520 
	C295.844940,205.515213 295.550873,205.605865 296.353241,205.605865 
	C299.993744,216.213867 303.728943,227.097839 306.998169,236.624023 
	C307.963806,226.623413 304.490540,216.361069 297.109680,206.607391 
M154.202682,245.043625 
	C155.519745,244.638474 157.946442,244.309296 157.980194,243.816269 
	C158.279160,239.449814 158.153854,235.054321 158.153854,229.647278 
	C155.821823,231.393311 154.812729,232.148849 153.757477,232.938934 
	C156.013794,234.974854 157.130722,239.845963 155.237076,241.104706 
	C153.304413,242.389374 150.448044,242.284409 147.152649,242.960983 
	C147.331146,246.410889 151.046295,244.582642 154.202682,245.043625 
M241.164749,151.512131 
	C238.974380,150.399002 236.316650,149.718307 234.751511,148.026688 
	C233.635223,146.820251 233.987366,144.255142 233.535995,141.338486 
	C232.628250,142.722672 230.947052,144.156555 231.166443,145.184937 
	C231.635239,147.382233 232.550720,150.240082 234.237579,151.281509 
	C239.534653,154.551865 245.492935,155.817352 252.467896,154.628464 
	C248.474762,153.582550 245.174332,152.718063 241.164749,151.512131 
M250.993134,279.323059 
	C252.484787,282.463654 255.482452,284.459503 258.137604,282.518646 
	C262.393738,279.407562 265.770477,275.093445 269.518921,271.287781 
	C269.047302,270.843018 268.575714,270.398285 268.104126,269.953522 
	C266.306030,271.896332 264.580994,273.913330 262.696533,275.768372 
	C256.276276,282.088440 254.421951,281.697845 251.350296,273.529480 
	C251.288986,273.366425 250.763794,273.377808 249.884811,273.178558 
	C250.221130,275.121857 250.518463,276.839874 250.993134,279.323059 
M303.114960,239.532425 
	C303.253998,239.624313 303.383606,239.746185 303.536407,239.794449 
	C303.605011,239.816132 303.797913,239.696793 303.803101,239.631042 
	C304.643890,229.008118 301.289978,219.971771 294.945038,213.532715 
	C297.367096,221.145844 300.180847,229.990250 303.114960,239.532425 
M284.015686,256.968994 
	C283.710754,252.996735 285.745361,248.498108 282.090393,245.552155 
	C281.758179,249.641403 281.679352,253.835876 281.018372,257.936523 
	C280.178589,263.146729 276.263458,264.600739 270.551270,264.163269 
	C277.593750,267.805054 280.681488,266.098114 284.015686,256.968994 
M316.632996,195.007080 
	C317.896942,194.486649 319.160889,193.966217 320.989166,193.213409 
	C316.086639,192.423462 312.742615,194.061401 310.528778,197.503876 
	C306.999359,202.992096 307.480499,208.632568 311.129913,215.385178 
	C310.565094,207.346451 308.903595,200.134094 316.632996,195.007080 
M201.459747,153.179947 
	C203.872604,154.522415 206.328659,157.053970 208.689651,156.968201 
	C214.176788,156.768921 219.618073,155.307220 225.077942,154.357147 
	C220.580002,154.015015 216.000153,153.612595 211.533752,154.151108 
	C208.354950,154.534378 205.799301,154.831146 203.686081,151.889008 
	C203.203934,151.217728 201.323425,150.768494 200.693680,151.169800 
	C199.760803,151.764297 199.370224,153.209778 198.748779,154.292969 
	C198.984406,154.427994 199.220032,154.563019 199.455658,154.698044 
	C199.895508,154.225281 200.335342,153.752518 201.459747,153.179947 
M171.019638,196.468643 
	C172.104263,197.352951 173.188889,198.237259 174.247696,199.100525 
	C177.064163,196.769516 179.454376,194.791290 181.932877,192.740005 
	C180.585098,190.956818 179.488434,189.505859 178.789368,188.580963 
	C178.309769,190.410660 178.342056,192.683060 177.222321,193.788086 
	C176.353973,194.645020 173.399460,194.739304 172.528168,193.929306 
	C171.178452,192.674454 170.813553,190.360275 169.843109,188.047211 
	C169.151184,188.819916 168.057251,190.041534 166.934875,191.294937 
	C168.321411,193.065079 169.441833,194.495514 171.019638,196.468643 
M172.344742,163.683945 
	C171.333771,165.207748 170.322784,166.731537 169.436234,168.067810 
	C171.547791,167.437927 173.201004,166.331589 174.113785,166.769318 
	C181.545837,170.333328 186.588547,164.417999 192.660660,162.526199 
	C186.088318,162.805527 179.899399,167.379959 172.344742,163.683945 
M300.037659,238.100494 
	C299.720703,230.973526 297.379211,224.834045 292.155670,219.878204 
	C294.802338,227.214020 297.347107,234.267502 300.038452,241.727188 
	C300.038452,240.504440 300.038452,239.688782 300.037659,238.100494 
M179.252762,266.734070 
	C177.625214,261.329590 175.997681,255.925095 174.370132,250.520615 
	C173.815582,250.694351 173.261032,250.868088 172.706482,251.041824 
	C174.693771,257.557343 176.681061,264.072845 178.668350,270.588348 
	C179.155212,270.450500 179.642075,270.312683 180.128922,270.174835 
	C179.969284,269.218628 179.809662,268.262390 179.252762,266.734070 
M317.901978,208.367020 
	C312.606079,215.750381 315.246735,223.486877 316.523651,231.151978 
	C317.056763,223.770691 317.589844,216.389420 317.901978,208.367020 
M217.706589,293.944733 
	C216.810410,294.928894 215.914230,295.913055 215.018036,296.897247 
	C214.747589,295.780060 214.477142,294.662903 213.986328,292.635498 
	C213.132599,294.319733 212.032181,295.507111 212.143723,296.566956 
	C212.241318,297.494080 213.695053,298.961639 214.561432,298.969971 
	C215.979263,298.983612 218.359268,298.312836 218.655502,297.391357 
	C219.635590,294.342590 219.865387,291.052612 220.383102,287.855164 
	C219.971283,287.776123 219.559479,287.697083 219.147659,287.618042 
	C218.733490,289.477936 218.319305,291.337799 217.706589,293.944733 
M315.946869,234.703110 
	C315.169434,232.356537 314.391968,230.009979 313.614532,227.663406 
	C313.293945,227.746048 312.973389,227.828690 312.652802,227.911331 
	C313.432098,232.601440 314.211395,237.291550 315.033295,242.238098 
	C318.226257,241.134232 320.481873,240.354431 323.708405,239.238968 
	C319.970306,238.762817 316.184937,240.381470 315.946869,234.703110 
M250.969604,193.681519 
	C250.445663,198.886337 245.780228,200.149536 242.192993,202.492493 
	C244.843353,202.510345 247.277252,202.370850 249.651550,201.918564 
	C251.779861,201.513123 253.382919,194.367462 251.784454,192.801025 
	C251.769913,192.786774 251.538788,192.993546 250.969604,193.681519 
M244.508133,187.432251 
	C241.726624,190.723038 238.945099,194.013824 236.590286,196.799774 
	C241.271667,197.296738 246.046371,192.625061 244.508133,187.432251 
M228.102844,178.612366 
	C228.625381,177.532227 229.147919,176.452072 229.670456,175.371918 
	C227.794708,176.168793 225.932678,177.870468 226.225616,179.025757 
	C226.683136,180.830231 228.326691,183.055511 229.978455,183.627304 
	C231.547363,184.170456 233.771912,182.819809 234.908737,182.515717 
	C232.632217,181.429672 230.431686,180.379868 228.102844,178.612366 
M245.873703,319.092651 
	C245.833023,319.332092 245.756149,319.574402 245.774521,319.809204 
	C245.779785,319.876404 246.056671,319.946259 246.216110,319.973969 
	C250.132904,320.654877 253.920074,315.242645 258.317352,320.768860 
	C257.281860,316.145508 255.264709,315.155243 251.972168,316.558685 
	C250.170456,317.326691 248.368423,318.093903 245.873703,319.092651 
M156.466858,303.444824 
	C155.866837,302.691406 155.266815,301.937988 154.666809,301.184570 
	C154.437729,301.384094 154.208633,301.583588 153.979553,301.783081 
	C154.604126,302.489197 155.228699,303.195282 156.466858,303.444824 
z"/>
<path fill="#9BDE2D" opacity="1.000000" stroke="none" 
	d="
M41.905525,206.133865 
	C41.905518,214.518723 41.905518,222.423859 41.905518,231.717804 
	C46.636959,225.026474 51.956173,221.722031 58.761841,221.087036 
	C70.230019,220.017075 79.781097,225.699783 84.180496,236.413315 
	C88.150826,246.082001 88.049034,255.897110 84.469604,265.652985 
	C77.279243,285.250641 52.292416,287.015625 42.257229,271.889130 
	C42.081177,274.249084 42.465996,276.212280 41.708435,277.507141 
	C40.679363,279.266022 38.638588,281.808594 37.282177,281.664062 
	C35.446526,281.468506 33.709705,279.166718 32.225327,277.505127 
	C31.719870,276.939270 32.088123,275.576660 32.087986,274.578094 
	C32.084667,250.765350 32.084560,226.952606 32.089149,203.139862 
	C32.089344,202.141724 31.737289,200.784866 32.245071,200.214203 
	C33.644005,198.642044 35.405193,196.339676 37.037601,196.327835 
	C38.627285,196.316315 40.726227,198.511932 41.680958,200.245499 
	C42.460217,201.660431 41.881916,203.823044 41.905525,206.133865 
M71.025352,269.556976 
	C78.479027,260.925629 78.277306,250.935669 75.545052,240.839264 
	C73.424767,233.004181 67.149803,228.933502 59.056534,229.054825 
	C51.121277,229.173767 44.770565,233.581879 43.271786,241.616959 
	C42.171055,247.518066 41.821152,253.958603 42.967270,259.799530 
	C45.683941,273.644470 58.943756,278.282959 71.025352,269.556976 
z"/>
<path fill="#F4F6F6" opacity="1.000000" stroke="none" 
	d="
M395.449249,230.530701 
	C389.443359,239.098892 389.558777,249.112091 387.176544,258.380707 
	C385.812225,263.688934 384.971130,269.131683 383.845123,274.760498 
	C382.067108,274.760498 380.300781,274.760498 377.984161,274.760498 
	C380.131042,264.171204 382.257690,253.675262 384.389099,243.180267 
	C384.554596,242.365433 384.803680,241.564941 384.927917,240.744751 
	C385.759003,235.257233 387.066284,229.301910 381.019501,226.024216 
	C374.795654,222.650513 367.890015,223.230835 362.806030,227.891617 
	C359.259766,231.142654 356.473328,236.094650 355.208740,240.788315 
	C352.194855,251.974899 350.283875,263.458649 347.916473,274.875031 
	C345.976227,274.875031 344.346893,274.875031 342.159973,274.875031 
	C345.941986,256.659210 349.672821,238.689697 353.511261,220.202148 
	C355.150482,220.127609 356.868561,220.049469 358.902252,219.956985 
	C358.766541,221.719009 358.658875,223.116745 358.540649,224.651764 
	C376.784576,216.354919 385.128143,217.229141 391.508331,228.222427 
	C396.960938,221.572418 403.941528,218.480240 412.489502,219.039932 
	C422.459442,219.692719 428.043732,225.373108 427.095398,235.287476 
	C426.322693,243.366028 424.366058,251.336197 422.836700,259.335754 
	C421.870270,264.390869 420.724335,269.411652 419.599213,274.729919 
	C417.873505,274.729919 416.121857,274.729919 413.855743,274.729919 
	C416.040039,263.919708 418.284271,253.253510 420.323456,242.548248 
	C421.469452,236.532211 423.357452,230.065430 416.591370,225.931915 
	C410.595581,222.268951 401.795074,224.267761 395.449249,230.530701 
M358.126556,225.452896 
	C358.325226,225.527649 358.523895,225.602402 358.722595,225.677155 
	C358.660217,225.463776 358.597839,225.250397 358.126556,225.452896 
z"/>
<path fill="#F4F5F6" opacity="1.000000" stroke="none" 
	d="
M469.595825,240.608093 
	C467.537842,242.798828 465.726654,244.734238 463.719299,246.879272 
	C468.799469,256.111145 473.825989,265.245544 478.923126,274.508301 
	C474.726807,276.018738 472.491974,274.613037 470.643890,270.851562 
	C467.429169,264.308502 463.646423,258.044525 459.756989,251.042831 
	C455.051300,256.024445 450.935760,260.975922 446.192993,265.227814 
	C441.814819,269.152863 439.687439,276.880280 430.624359,274.632477 
	C439.546875,265.141388 448.240234,255.894058 457.165253,246.400284 
	C452.454346,237.843048 447.750977,229.299530 442.935333,220.552032 
	C447.027771,219.045227 449.307892,220.229263 451.150391,224.023788 
	C454.109528,230.117935 457.651154,235.929230 461.144806,242.216690 
	C467.456146,235.577530 473.542694,229.447220 479.284363,223.009308 
	C481.800537,220.188049 484.382385,219.285965 488.425018,220.518295 
	C482.056732,227.315674 475.949707,233.834213 469.595825,240.608093 
z"/>
<path fill="#9CCD50" opacity="1.000000" stroke="none" 
	d="
M165.482422,181.364014 
	C165.487335,181.062637 165.618362,180.833313 166.248032,180.756348 
	C167.028107,180.737213 167.435699,180.637741 167.843277,180.538284 
	C169.508240,179.896667 171.445709,179.606491 172.796249,178.559341 
	C187.198181,167.392883 203.320984,160.846558 221.620316,159.994797 
	C222.595139,159.949432 223.584534,160.216949 224.772461,160.695694 
	C224.977783,161.052582 225.021484,161.004593 225.021484,161.004593 
	C218.718872,162.147568 212.269302,162.774368 206.138138,164.519623 
	C173.177032,173.902100 152.391403,195.323105 144.653473,228.739914 
	C143.794983,232.447433 142.429184,236.423981 142.886200,240.635727 
	C143.404114,245.408798 142.662415,250.317276 143.164841,255.093643 
	C143.662704,259.826538 144.747513,264.550568 146.091446,269.126740 
	C147.435043,273.701782 149.060211,278.267426 151.182999,282.527710 
	C160.480530,301.187317 174.501663,315.072113 193.879883,323.093170 
	C204.787048,327.607849 216.181808,330.240601 228.550049,330.354675 
	C228.998688,331.095612 228.999161,331.481934 228.999634,331.868256 
	C219.844315,331.434753 210.620514,334.354919 201.482697,331.144806 
	C200.039764,330.637848 198.108582,331.520691 196.522873,331.744110 
	C196.443710,329.330231 196.443710,329.330231 201.482101,328.416229 
	C179.726807,321.693268 164.107071,307.062683 149.557678,290.622131 
	C149.592010,290.235992 150.009613,289.990479 150.276306,289.988037 
	C150.720581,289.973450 150.898163,289.961273 151.040131,289.946167 
	C151.004486,289.943268 151.030106,289.876526 151.166306,290.082825 
	C151.718445,290.294128 152.134384,290.299133 152.550323,290.304108 
	C152.417526,289.879120 152.284729,289.454102 151.976196,288.716034 
	C143.108658,274.137543 140.534103,258.318268 140.041000,241.647751 
	C139.736160,237.943619 139.430511,234.566727 139.048477,231.198502 
	C138.813202,229.124313 138.461288,227.063339 138.161743,224.996429 
	C137.968063,224.995956 137.774399,224.995468 137.299271,224.656830 
	C137.025360,223.961700 137.032913,223.604767 137.040451,223.247818 
	C139.663544,222.536575 141.100235,223.364120 141.025757,226.257660 
	C140.984344,227.865753 141.028534,229.476044 140.806366,231.735870 
	C140.640778,233.049103 140.702972,233.711807 140.765167,234.374496 
	C141.158401,233.538193 141.551620,232.701874 141.944839,231.865570 
	C143.600449,216.990662 150.054077,204.184708 158.996964,192.471054 
	C161.293472,189.462997 163.740952,186.570206 165.936676,183.058167 
	C165.796097,182.353867 165.905090,182.192001 165.866241,182.082626 
	C165.776352,181.829575 165.614868,181.601944 165.482422,181.364014 
z"/>
<path fill="#9ECF4F" opacity="1.000000" stroke="none" 
	d="
M166.640045,270.315369 
	C151.633484,232.717896 172.613464,194.101044 207.237000,183.873795 
	C212.461166,182.330673 217.916382,181.569839 223.264725,180.447144 
	C223.422943,181.033920 223.581146,181.620712 223.739349,182.207489 
	C221.816513,182.776672 219.928818,183.627808 217.965546,183.872543 
	C190.832703,187.254562 169.772644,207.768066 164.917419,234.947021 
	C159.127258,267.359589 180.042374,300.425049 215.178528,306.779694 
	C245.435425,312.251953 274.276764,295.146210 284.183929,267.214020 
	C287.005859,259.257996 288.056641,250.673767 290.178802,242.432419 
	C293.414429,264.983856 276.612000,298.238190 243.865463,307.572418 
	C212.660873,316.467133 179.076035,300.484894 166.640045,270.315369 
z"/>
<path fill="#9CCE4F" opacity="1.000000" stroke="none" 
	d="
M252.903076,295.079803 
	C262.587250,290.881348 268.915527,283.004303 275.036774,274.897644 
	C275.472809,274.320190 275.965912,273.785828 276.688843,273.441559 
	C273.651123,281.764099 267.987457,288.053741 261.056671,293.272247 
	C225.344101,320.161835 174.168991,299.088806 166.801132,254.996109 
	C161.751465,224.776550 181.457382,195.737396 209.207367,188.440155 
	C210.472397,188.107498 211.821243,188.093613 213.746552,188.066116 
	C214.620514,188.373383 214.826263,188.594788 214.979279,188.865219 
	C207.369293,191.898361 199.759308,194.931519 192.201630,197.943817 
	C193.238022,200.950500 193.893265,202.851440 194.713501,205.230988 
	C197.590912,203.828903 200.455887,202.432877 203.320847,201.036850 
	C203.547989,201.422455 203.775131,201.808044 204.002289,202.193649 
	C200.085632,204.838211 196.168976,207.482773 191.977371,210.312988 
	C193.288025,213.410797 194.787903,217.854614 190.485733,220.816101 
	C188.246582,222.357468 184.696457,222.869797 181.953064,222.448776 
	C180.493423,222.224792 179.491180,219.020172 178.865570,216.648254 
	C181.536652,219.182495 183.759125,221.944336 187.727066,219.375977 
	C190.782944,217.397980 191.206833,213.021774 188.849167,208.574966 
	C188.090866,207.144745 187.288300,205.738007 186.507477,204.323196 
	C168.606613,219.202469 160.640213,250.757919 176.906509,276.145416 
	C192.543808,300.551208 224.737946,310.985779 252.853607,295.350311 
	C252.954926,295.039307 252.903076,295.079803 252.903076,295.079803 
z"/>
<path fill="#9FE22D" opacity="1.000000" stroke="none" 
	d="
M107.741280,281.852234 
	C103.217873,282.144043 101.744308,279.938934 101.754631,276.098419 
	C101.798859,259.639069 101.793877,243.179474 101.760040,226.720062 
	C101.753220,223.405090 102.944359,221.083832 106.523758,221.075562 
	C110.159042,221.067169 111.229134,223.480820 111.222900,226.755936 
	C111.191559,243.215363 111.308418,259.676300 111.075592,276.132477 
	C111.048805,278.025726 109.169373,279.892822 107.741280,281.852234 
z"/>
<path fill="#9ED04E" opacity="1.000000" stroke="none" 
	d="
M287.336792,225.105438 
	C286.532349,225.068146 286.049408,225.068146 285.566498,225.068146 
	C285.546753,224.670700 285.527008,224.273254 285.507233,223.875809 
	C286.998566,223.798035 289.071320,223.081924 289.847687,223.789093 
	C291.074432,224.906540 292.229767,227.124390 291.958191,228.610214 
	C291.606232,230.535782 290.212585,233.136307 288.588440,233.810394 
	C282.381561,236.386490 277.607147,233.068604 275.452240,225.292618 
	C268.336792,228.275742 264.247284,227.694580 261.971863,223.150635 
	C260.573792,220.358704 259.784637,217.290680 263.113068,215.249268 
	C265.418365,213.835373 268.056000,212.789597 269.705750,214.895813 
	C267.528168,216.590485 264.382019,217.897888 264.341187,219.295990 
	C264.240082,222.756897 267.103851,224.821838 270.457642,223.808960 
	C273.079376,223.017166 276.268005,221.361328 277.470123,219.147491 
	C280.522308,213.526581 282.438446,207.302216 285.123749,201.464050 
	C287.004120,197.376022 285.832916,194.584335 282.529175,192.012207 
	C279.626526,189.752350 276.937622,187.217926 274.704712,184.111633 
	C279.219879,186.713501 283.940399,189.032349 288.135162,192.075821 
	C289.540833,193.095703 290.530823,196.195496 290.093414,197.938751 
	C289.146179,201.714157 287.102936,205.206284 285.602844,208.853333 
	C283.667297,213.559174 281.428833,218.191589 280.055389,223.062759 
	C278.737579,227.736603 280.821655,230.451691 285.286987,230.579178 
	C286.569458,230.615799 288.148712,229.418015 289.062836,228.338303 
	C289.392670,227.948730 288.171600,226.246140 287.336792,225.105438 
z"/>
<path fill="#9BCC50" opacity="1.000000" stroke="none" 
	d="
M270.219025,177.855270 
	C272.133270,176.080505 274.264862,174.445511 276.396454,172.810532 
	C276.149323,172.442245 275.902191,172.073959 275.655060,171.705673 
	C275.228516,171.759018 274.719330,171.679291 274.387604,171.885315 
	C267.340149,176.262436 260.759979,176.038834 253.283691,171.905197 
	C249.590179,169.863052 244.120682,170.984711 239.450226,170.776947 
	C236.856049,170.661545 234.252548,170.756226 231.665909,170.233566 
	C241.700989,167.089691 251.508850,166.788910 261.110626,171.518692 
	C262.704346,172.303741 265.406860,172.178177 267.020111,171.349869 
	C273.808746,167.864304 280.130310,167.860413 286.628113,172.119614 
	C289.442993,173.964691 292.805298,174.974564 295.918915,176.363800 
	C296.247772,175.572174 296.576630,174.780548 296.905487,173.988922 
	C289.317627,171.008316 281.752411,167.966583 274.111053,165.130127 
	C273.228699,164.802597 271.786713,165.383789 270.834320,165.938614 
	C263.359070,170.293533 256.380219,168.717010 248.892807,163.988617 
	C252.612289,164.419586 255.617065,165.058441 258.614716,165.026733 
	C261.197540,164.999420 264.053741,164.764603 266.289612,163.633865 
	C270.433014,161.538467 274.199097,161.842911 278.148193,163.743210 
	C283.801208,166.463348 289.561218,168.979462 295.080841,171.945084 
	C296.404144,172.656067 296.959808,174.795868 297.868530,176.278534 
	C296.178680,176.549576 294.260529,177.468262 292.842407,176.968430 
	C288.829071,175.553909 285.020477,173.558472 282.863068,172.578537 
	C277.838989,174.768417 274.137665,176.381729 270.219025,177.855270 
z"/>
<path fill="#9ECF4F" opacity="1.000000" stroke="none" 
	d="
M229.435822,331.930969 
	C228.999161,331.481934 228.998688,331.095612 228.998932,330.419556 
	C230.074417,330.065765 231.149155,330.001648 232.976318,329.973755 
	C234.808960,329.725159 235.889175,329.440369 236.969391,329.155548 
	C240.952408,328.411407 244.935425,327.667267 249.553375,326.858673 
	C250.503036,326.673187 250.763046,326.478943 250.968353,326.211487 
	C254.222824,324.983093 257.477295,323.754700 261.199982,322.257538 
	C261.668213,321.988770 262.087402,321.961426 262.087402,321.961426 
	C262.802521,321.635162 263.517609,321.308899 264.756714,320.884094 
	C265.568420,320.634735 265.801239,320.423492 265.979187,320.151794 
	C267.748444,319.109741 269.517700,318.067719 271.632294,317.263550 
	C272.018372,318.273010 272.059174,319.044556 272.118439,320.165771 
	C272.949554,319.246674 273.538330,318.595581 274.504333,317.997742 
	C277.249420,317.364899 279.617279,316.678833 282.044891,316.423218 
	C282.340759,317.380066 282.576874,317.906494 282.812988,318.432892 
	C282.812988,318.432892 282.717834,318.731110 282.226013,318.545685 
	C281.204956,318.239105 280.675720,318.117920 280.146515,317.996735 
	C274.253906,322.369324 267.241180,325.294189 261.842896,330.578125 
	C261.445282,329.853882 260.463531,328.065765 259.299164,325.945038 
	C257.959259,326.326294 256.437744,326.759277 255.659683,326.980682 
	C258.843201,330.491638 262.192108,334.184967 265.948364,338.327576 
	C266.496033,336.737671 266.895325,335.578583 267.630127,334.785828 
	C267.963226,336.060455 267.960754,336.968781 267.958252,337.877075 
	C267.930603,340.702454 266.653992,341.451904 264.234619,340.017334 
	C263.265900,339.442963 262.131134,338.823395 261.583710,337.915741 
	C257.546753,331.222107 251.723282,331.708191 245.229019,333.222504 
	C239.524445,334.552734 233.646103,335.137665 226.960419,336.013916 
	C223.720123,335.983582 221.363937,335.991089 219.007736,335.998566 
	C217.594315,335.998566 216.180893,335.998566 214.370239,335.998566 
	C224.434784,334.485748 234.015793,333.045624 243.804077,331.301575 
	C244.011353,330.997620 243.978470,331.049316 244.319122,331.034546 
	C245.203140,330.862274 245.746506,330.704803 247.407196,330.223511 
	C245.427460,330.076660 244.654221,330.019318 243.570190,329.972839 
	C242.515732,330.270996 241.772064,330.558289 241.028397,330.845551 
	C237.309601,331.228271 233.590805,331.610992 229.435822,331.930969 
M263.871429,323.476715 
	C264.378113,323.743530 264.884827,324.010315 265.391510,324.277130 
	C265.514130,323.869415 265.636749,323.461731 265.759338,323.054016 
	C265.209564,323.062531 264.659760,323.071045 263.871429,323.476715 
M250.308716,329.128510 
	C250.412933,329.034637 250.517166,328.940796 250.621384,328.846924 
	C250.517120,328.861969 250.412857,328.876984 250.308716,329.128510 
z"/>
<path fill="#E9ECED" opacity="1.000000" stroke="none" 
	d="
M471.986572,304.984253 
	C471.922546,306.007751 471.386932,307.451355 471.866943,307.990173 
	C477.067963,313.828339 475.234894,321.207214 467.719818,324.043549 
	C466.639435,324.451324 465.482758,324.868774 464.352448,324.894867 
	C460.049530,324.994171 455.742920,324.934906 450.884216,324.934906 
	C452.957123,312.943756 454.980042,301.241669 457.082642,289.078674 
	C461.549011,289.078674 466.085724,288.478516 470.343140,289.309296 
	C472.800751,289.788849 476.005341,292.177216 476.755249,294.416046 
	C478.102661,298.438934 477.054962,302.667877 471.986359,304.729736 
	C474.047089,301.501465 476.488129,298.030701 474.126221,294.217560 
	C470.544281,288.434814 464.448334,292.036774 459.162018,290.760620 
	C458.302246,295.994141 457.515717,300.781891 456.601257,306.348267 
	C462.166443,305.854889 467.076508,305.419586 471.986572,304.984253 
M455.141235,313.770721 
	C454.679626,316.695923 454.218048,319.621124 453.610107,323.473816 
	C458.610046,322.909637 463.303589,322.951508 467.634918,321.719788 
	C471.455627,320.633270 473.338989,317.003021 472.623993,313.007416 
	C471.922028,309.084778 468.623413,308.071808 465.039551,308.027527 
	C462.098877,307.991150 459.157349,308.020111 456.360901,308.020111 
	C455.924835,310.005432 455.606018,311.456818 455.141235,313.770721 
z"/>
<path fill="#E8EBEC" opacity="1.000000" stroke="none" 
	d="
M420.294373,325.044922 
	C418.540955,325.044891 417.241547,325.044891 415.377228,325.044891 
	C417.461273,312.925598 419.468414,301.253510 421.526245,289.286560 
	C426.424927,289.286560 431.239349,288.747711 435.883392,289.407745 
	C443.632721,290.509094 447.255707,295.376648 447.187836,303.267944 
	C447.075867,316.283264 438.690155,324.793793 425.729401,325.033691 
	C424.069580,325.064392 422.408783,325.042480 420.294373,325.044922 
M444.894684,304.316162 
	C444.549652,293.194916 438.459808,289.466309 423.516724,291.491547 
	C421.736603,301.794067 419.938080,312.203033 418.136353,322.630798 
	C434.997742,324.380127 441.724548,319.924438 444.894684,304.316162 
z"/>
<path fill="#9CCD50" opacity="1.000000" stroke="none" 
	d="
M293.221039,188.773911 
	C296.175995,192.441147 299.130951,196.108383 301.714264,199.314362 
	C302.568115,189.893433 309.814911,183.464813 319.276245,188.639008 
	C306.823486,188.046799 299.978271,198.631851 305.236328,210.692596 
	C310.341125,222.401794 312.817383,234.606537 312.936584,247.323074 
	C312.955109,249.301270 312.564056,251.283295 312.060425,253.388611 
	C311.239410,253.022797 310.720337,252.531937 310.201263,252.041092 
	C311.500702,229.342606 304.350067,209.051498 292.626556,189.626068 
	C292.875610,189.036118 293.048340,188.905014 293.221039,188.773911 
z"/>
<path fill="#9ECF4F" opacity="1.000000" stroke="none" 
	d="
M310.119263,252.470825 
	C310.720337,252.531937 311.239410,253.022797 311.879456,253.756927 
	C312.323578,257.392578 312.646698,260.784943 312.685059,264.855103 
	C312.266327,266.352783 312.132416,267.172699 311.998535,267.992615 
	C311.006439,273.063812 310.014343,278.135010 308.928345,283.686096 
	C309.133789,283.808685 310.059570,284.361145 311.014221,284.930817 
	C308.418427,288.281006 304.096893,282.566071 301.816650,287.847961 
	C299.971039,291.294403 298.478302,294.169861 296.994965,297.024445 
	C297.004364,297.003601 297.041748,296.977325 296.706940,296.837097 
	C296.235626,297.141357 296.099121,297.585785 295.973389,298.009338 
	C295.984161,297.988403 296.017639,297.955322 295.638672,298.081726 
	C295.171478,298.821075 295.083313,299.433990 295.001221,300.026672 
	C295.007324,300.006470 295.042938,299.983856 294.699921,299.726624 
	C293.569183,300.994324 292.781464,302.519257 291.998230,304.025726 
	C292.002716,304.007294 292.038422,303.994385 291.820068,303.660156 
	C290.413055,304.229126 289.224426,305.132294 287.741211,305.866150 
	C287.222015,305.667816 286.997375,305.638763 286.772705,305.609741 
	C291.717346,298.300018 296.664246,290.991760 301.597412,283.674316 
	C301.771362,283.416351 301.809265,283.066742 302.129211,282.258667 
	C302.553986,281.466583 302.760071,281.175659 302.966125,280.884735 
	C305.323151,271.556671 307.680206,262.228638 310.119263,252.470825 
z"/>
<path fill="#9DCE4F" opacity="1.000000" stroke="none" 
	d="
M162.999161,182.986252 
	C162.041260,183.354935 160.881973,183.493103 160.156006,184.127289 
	C150.949326,192.170074 145.818283,202.567947 142.956085,214.250412 
	C142.200729,217.333450 140.936005,219.697708 137.160431,219.964066 
	C134.919418,220.122177 132.738220,221.128036 130.530136,221.752747 
	C131.747803,223.731491 132.965485,225.710236 134.193512,227.705811 
	C131.185989,227.046585 128.429794,225.599609 128.047684,221.833847 
	C127.632545,217.742340 131.042938,216.848526 133.908661,216.436172 
	C137.411804,215.932129 138.452454,214.423065 139.427933,210.968216 
	C143.000336,198.315948 150.453644,188.189285 161.661102,180.566620 
	C161.883545,181.479706 162.062042,182.212357 162.598938,182.988358 
	C162.957352,183.031708 162.999161,182.986252 162.999161,182.986252 
z"/>
<path fill="#9DCF4E" opacity="1.000000" stroke="none" 
	d="
M144.025787,286.964569 
	C142.730194,287.273895 141.434616,287.583221 139.403793,288.068085 
	C140.873230,289.334045 141.554062,289.920624 142.643494,290.859222 
	C141.212326,290.926605 139.863388,291.400238 139.199600,290.922302 
	C138.275940,290.257263 137.179932,288.053406 137.333908,287.925629 
	C143.965454,282.422516 139.124557,276.739258 137.558167,271.277893 
	C134.177383,259.490540 135.019455,247.704559 137.288177,235.780914 
	C137.725830,238.808624 137.869797,241.923813 138.027405,245.492065 
	C139.514252,255.358475 140.785980,264.809814 142.550858,274.168152 
	C143.358795,278.452301 145.585281,282.500793 143.993301,287.021576 
	C144.014709,287.010956 144.025787,286.964569 144.025787,286.964569 
z"/>
<path fill="#A0D24E" opacity="1.000000" stroke="none" 
	d="
M185.742249,324.245728 
	C192.248245,326.161316 194.366714,330.345062 192.721359,337.075256 
	C195.403473,336.686829 197.401321,336.397491 199.399155,336.108154 
	C199.492508,336.505280 199.585846,336.902435 199.679199,337.299561 
	C196.782150,338.044312 193.885101,338.789032 190.596573,339.634399 
	C190.314636,337.763458 189.936569,336.653076 190.023514,335.580383 
	C190.336670,331.717102 188.247879,329.769531 185.193451,327.730927 
	C177.091690,322.323425 169.258179,316.505127 161.449097,310.674591 
	C159.568481,309.270447 158.196884,307.184448 157.172180,304.838989 
	C166.587463,311.243988 176.002762,317.648987 185.742249,324.245728 
z"/>
<path fill="#9FD14F" opacity="1.000000" stroke="none" 
	d="
M302.957001,288.975433 
	C306.344025,288.958374 309.731079,288.937469 313.118103,288.925690 
	C315.266632,288.918182 317.415192,288.924255 320.144348,288.924255 
	C319.735901,286.917816 319.392639,285.231659 319.049377,283.545502 
	C319.445251,283.417786 319.841095,283.290070 320.236969,283.162354 
	C320.807220,285.351227 321.974792,287.623627 321.685547,289.692291 
	C321.549164,290.667603 318.454895,292.137939 316.977814,291.868103 
	C308.105743,290.247253 302.818909,294.527222 298.239532,301.488159 
	C295.447723,305.731842 291.328857,309.102539 287.260834,312.801025 
	C286.539093,312.574707 286.362549,312.412720 286.326172,311.947449 
	C288.323700,309.094269 290.181061,306.544312 292.038422,303.994385 
	C292.038422,303.994385 292.002716,304.007294 292.322296,303.939026 
	C293.442230,302.575134 294.242584,301.279480 295.042938,299.983856 
	C295.042938,299.983856 295.007324,300.006470 295.346436,299.896973 
	C295.796234,299.176727 295.906952,298.566040 296.017639,297.955322 
	C296.017639,297.955322 295.984161,297.988403 296.304321,298.125305 
	C296.763550,297.833893 296.902649,297.405609 297.041748,296.977325 
	C297.041748,296.977325 297.004364,297.003601 297.330109,296.945740 
	C299.422913,294.250427 301.189972,291.612946 302.957001,288.975433 
z"/>
<path fill="#9ECF4F" opacity="1.000000" stroke="none" 
	d="
M315.753662,271.527649 
	C315.267395,273.113586 314.939087,274.346283 314.610748,275.579010 
	C314.380066,275.562042 314.149384,275.545044 313.918732,275.528076 
	C314.114288,273.190338 314.294098,270.851166 314.508667,268.515198 
	C314.992096,263.251984 315.694305,257.999298 315.927643,252.725510 
	C316.144257,247.829239 317.840179,244.187622 322.392029,241.893097 
	C325.119507,240.518219 327.579956,238.613647 330.953583,236.434937 
	C328.410797,235.584213 326.903778,235.080017 325.396759,234.575821 
	C325.393585,234.390518 325.390442,234.205200 325.387268,234.019897 
	C326.866943,234.113434 328.416382,233.960403 329.810822,234.355118 
	C332.242798,235.043518 333.518890,237.221176 331.050476,238.554352 
	C317.760803,245.731888 319.654877,259.721527 315.753662,271.527649 
z"/>
<path fill="#9ACB52" opacity="1.000000" stroke="none" 
	d="
M254.570389,150.990860 
	C261.055267,152.925232 267.170593,154.858521 273.285919,156.791809 
	C273.108032,157.353607 272.930176,157.915405 272.752319,158.477188 
	C271.173920,158.052155 269.595490,157.627106 268.003845,157.198486 
	C264.448914,163.183044 262.121185,164.039780 252.834747,162.376495 
	C254.418716,159.222534 255.920227,156.232788 257.431549,153.223480 
	C256.163177,152.802689 254.607635,152.294312 253.062241,151.756790 
	C252.958572,151.720764 252.931519,151.464447 252.868820,151.310593 
	C253.312820,151.203659 253.756836,151.096725 254.570389,150.990860 
z"/>
<path fill="#9ADC2D" opacity="1.000000" stroke="none" 
	d="
M112.163155,200.019714 
	C113.349403,205.418655 111.839203,208.639618 107.748856,208.762650 
	C105.582779,208.827774 102.673981,207.818420 101.386833,206.243103 
	C100.296562,204.908722 100.164429,201.301727 101.214516,200.071686 
	C102.643860,198.397446 105.543159,197.596451 107.926788,197.277313 
	C109.144676,197.114227 110.612419,198.817200 112.163155,200.019714 
z"/>
<path fill="#9DCF4E" opacity="1.000000" stroke="none" 
	d="
M263.051392,189.610504 
	C265.903534,192.953171 268.755707,196.295822 271.467865,199.474426 
	C267.995544,199.319107 264.584412,198.119980 262.404724,194.298645 
	C257.178619,185.136505 248.753464,180.880707 238.758926,179.092087 
	C238.034988,178.962524 237.327438,178.741348 236.612274,178.562775 
	C236.689774,178.152496 236.767273,177.742203 236.844788,177.331924 
	C242.308136,178.258240 247.771500,179.184540 253.623962,180.044540 
	C254.013062,179.978226 253.945877,179.975403 253.986343,180.290695 
	C254.681046,181.144043 255.335266,181.682098 256.206665,182.426453 
	C257.939301,183.567520 259.454803,184.502289 260.868896,185.846176 
	C261.188568,186.518646 261.609589,186.781998 262.028900,187.014603 
	C262.027161,186.983856 261.971405,186.957657 261.761200,187.301270 
	C262.031311,188.281494 262.511627,188.918106 263.017914,189.577927 
	C263.043884,189.601120 263.051392,189.610504 263.051392,189.610504 
z"/>
<path fill="#99CA50" opacity="1.000000" stroke="none" 
	d="
M263.410767,189.276489 
	C263.051392,189.610504 263.043884,189.601120 263.422119,189.281830 
	C263.190674,188.294250 262.581055,187.625946 261.971405,186.957657 
	C261.971405,186.957657 262.027161,186.983856 262.019257,186.665497 
	C261.664337,186.043762 261.317322,185.740417 260.970276,185.437073 
	C259.454803,184.502289 257.939301,183.567520 256.498016,182.278992 
	C255.696777,181.275284 254.821335,180.625351 253.945877,179.975403 
	C253.945877,179.975403 254.013062,179.978226 254.037262,180.001343 
	C250.636322,178.397919 247.211182,176.771378 243.556488,175.035843 
	C249.878784,174.727631 255.523392,175.890488 260.064697,180.362656 
	C263.253082,183.502518 266.179840,186.915710 269.454742,189.957794 
	C272.392334,192.686508 275.645813,195.075180 278.063934,197.046478 
	C274.966553,197.756104 271.241638,196.489227 268.231873,192.647156 
	C267.066772,191.159897 265.275909,190.162842 263.410767,189.276489 
z"/>
<path fill="#9DCF4E" opacity="1.000000" stroke="none" 
	d="
M204.977036,316.209534 
	C204.972122,314.024689 204.972122,312.211090 204.972122,309.386597 
	C209.347153,310.000671 213.359589,310.365509 217.246811,311.269043 
	C218.070206,311.460449 218.945053,313.625977 218.930099,314.871521 
	C218.834793,322.805237 216.375214,324.311035 207.301315,321.289185 
	C210.239746,321.086426 212.204498,320.950836 214.168945,320.814453 
	C216.641144,312.670929 214.808151,313.610809 207.364655,312.359253 
	C207.102112,313.449402 206.782837,314.543518 206.587097,315.659302 
	C206.423035,316.594482 206.403183,317.554932 206.210861,319.736206 
	C205.515030,317.949585 205.248489,317.265198 204.977036,316.209534 
z"/>
<path fill="#99CA50" opacity="1.000000" stroke="none" 
	d="
M227.608231,289.202301 
	C225.649109,292.121582 224.084671,294.904175 222.530777,297.668060 
	C221.204025,294.510498 221.477173,290.967651 224.471863,288.090210 
	C227.452866,285.225922 231.678970,283.995422 234.779922,286.695801 
	C236.805756,288.459930 237.604050,292.471924 237.501160,295.426514 
	C237.460464,296.595337 233.486694,297.627228 231.231949,298.757446 
	C232.808609,296.312042 235.020126,294.451050 234.952515,292.676941 
	C234.785233,288.288330 231.384064,288.288666 227.608231,289.202301 
z"/>
<path fill="#9CCD50" opacity="1.000000" stroke="none" 
	d="
M173.628754,234.945969 
	C174.202087,236.749084 174.921783,239.472397 175.854919,239.547607 
	C177.494171,239.679718 179.785095,238.625046 180.885834,237.303436 
	C184.890427,232.495316 182.564484,226.636963 175.734985,224.317947 
	C180.108673,223.265671 183.015961,225.234116 184.442688,228.582642 
	C186.139526,232.565002 185.768539,236.782913 182.532715,240.128372 
	C180.380844,242.353165 177.752686,244.114120 174.647354,242.052994 
	C173.163055,241.067780 171.395248,239.392319 171.218277,237.860519 
	C171.031143,236.240662 172.582916,234.419907 173.890976,231.558380 
	C174.351425,233.403961 174.514221,233.677567 174.445038,233.866043 
	C174.335220,234.165161 174.070450,234.407394 173.628754,234.945969 
z"/>
<path fill="#9BCC50" opacity="1.000000" stroke="none" 
	d="
M224.956909,161.077423 
	C228.647461,157.777115 232.352646,154.274445 237.880081,155.041306 
	C239.759918,155.302109 241.526306,156.380402 242.971725,157.661438 
	C240.452896,157.661438 237.721024,157.046631 235.472244,157.825912 
	C232.979797,158.689621 229.997498,160.347885 228.883636,162.512039 
	C226.709961,166.735352 226.594070,168.954788 233.206009,174.542465 
	C226.959198,174.344955 223.645737,169.175262 225.019165,161.385132 
	C225.021484,161.004593 224.977783,161.052582 224.956909,161.077423 
z"/>
<path fill="#99CA50" opacity="1.000000" stroke="none" 
	d="
M215.300842,188.921249 
	C214.826263,188.594788 214.620514,188.373383 214.162079,188.090546 
	C222.359650,186.889740 230.757202,185.799362 239.154739,184.708969 
	C239.270157,185.202774 239.385574,185.696564 239.501007,186.190369 
	C234.609344,187.439285 229.760239,188.901718 224.816101,189.887482 
	C217.248154,191.396378 217.171799,191.313538 216.753113,199.548233 
	C216.356689,199.986618 216.169922,199.990356 215.983170,199.994080 
	C215.862915,196.321808 215.742661,192.649551 215.300842,188.921249 
z"/>
<path fill="#9DCE50" opacity="1.000000" stroke="none" 
	d="
M166.400391,283.082703 
	C164.644165,283.502716 163.155640,284.131042 161.667130,284.759338 
	C161.452484,284.536865 161.237823,284.314392 161.023163,284.091888 
	C162.571335,282.741333 163.966492,280.670715 165.722351,280.297607 
	C166.861191,280.055603 168.618820,282.195648 169.922180,283.452057 
	C170.732513,284.233185 171.157990,285.397919 171.849609,286.320465 
	C175.104950,290.662811 174.979340,291.254486 170.065964,294.093384 
	C164.646362,297.224762 163.175888,296.626465 160.385361,289.519470 
	C163.868591,292.739655 167.020401,294.481079 170.042084,289.550415 
	C168.972351,287.565826 167.820221,285.428406 166.400391,283.082703 
z"/>
<path fill="#9DCE50" opacity="1.000000" stroke="none" 
	d="
M252.978424,295.016235 
	C250.989319,294.832062 248.976730,294.670959 246.158020,294.445343 
	C248.902328,293.326233 251.308319,293.044678 251.698456,292.005951 
	C252.168320,290.754913 251.280304,287.770874 250.351257,287.468323 
	C248.326340,286.808990 244.682465,286.507660 243.895859,287.616974 
	C242.244431,289.945953 242.009109,293.279053 241.319214,295.746429 
	C239.089478,292.011108 239.444412,287.658051 242.748947,284.774872 
	C245.883652,282.039825 249.205811,282.408936 252.207764,284.875824 
	C255.534286,287.609406 256.158661,290.875000 253.034973,294.727570 
	C252.903076,295.079803 252.954926,295.039307 252.978424,295.016235 
z"/>
<path fill="#9BCC50" opacity="1.000000" stroke="none" 
	d="
M195.638000,273.271423 
	C200.251160,277.002930 204.818100,280.793701 209.496506,284.441559 
	C211.927383,286.336945 212.708603,288.433807 211.372375,291.318939 
	C209.779892,294.757416 208.350677,295.556366 204.977844,294.894318 
	C206.223038,293.597321 208.538940,292.268372 208.704941,290.710419 
	C208.874298,289.121063 207.195648,287.057648 205.861206,285.639130 
	C202.365097,281.922699 198.615509,278.444672 195.089279,274.318054 
	C195.353760,273.600128 195.495880,273.435760 195.638000,273.271423 
z"/>
<path fill="#9FD14F" opacity="1.000000" stroke="none" 
	d="
M181.126465,257.515259 
	C181.719940,259.483551 182.261261,261.032867 182.754578,262.597321 
	C183.181503,263.951294 183.553925,265.322479 183.950439,266.686035 
	C183.415787,266.860352 182.881149,267.034668 182.346497,267.208984 
	C180.893448,262.422943 178.708115,257.714417 178.190842,252.829300 
	C177.660965,247.825455 182.720490,243.538788 187.395752,244.069061 
	C188.783340,244.226456 190.057663,245.382355 191.798370,246.298950 
	C188.726685,246.581055 186.366409,246.185760 184.685104,247.074661 
	C180.705154,249.178818 180.730255,253.188766 181.126465,257.515259 
z"/>
<path fill="#9ACB50" opacity="1.000000" stroke="none" 
	d="
M266.068115,314.803131 
	C265.266083,314.921021 264.777588,314.921021 263.542511,314.921021 
	C265.229950,313.598602 266.457733,312.636383 267.756378,311.618652 
	C265.627441,307.049011 262.632050,306.123352 258.155029,309.332733 
	C259.195282,310.168396 260.078400,310.877808 261.238892,311.810059 
	C260.420349,311.924988 259.679657,312.272217 259.297668,312.037018 
	C258.154083,311.332794 256.684021,310.586945 256.248566,309.495483 
	C255.931610,308.701019 256.743134,306.917480 257.584747,306.289093 
	C262.240356,302.812958 265.547302,303.493469 269.071930,308.348724 
	C269.651123,309.146576 270.295715,309.896942 271.480591,311.386414 
	C269.692108,312.543488 268.036896,313.614380 266.068115,314.803131 
z"/>
<path fill="#9DCE50" opacity="1.000000" stroke="none" 
	d="
M297.364563,206.841949 
	C304.490540,216.361069 307.963806,226.623413 306.998169,236.624023 
	C303.728943,227.097839 299.993744,216.213867 296.353241,205.605865 
	C295.550873,205.605865 295.844940,205.515213 295.999939,205.623520 
	C296.402466,205.904800 296.743866,206.273544 297.364563,206.841949 
z"/>
<path fill="#9DCE50" opacity="1.000000" stroke="none" 
	d="
M295.014832,273.927368 
	C292.523285,273.883942 288.992981,275.043396 289.125610,270.906342 
	C289.238556,267.384155 291.167847,264.628998 295.428467,264.877808 
	C296.588013,264.945557 297.853973,264.718384 298.886536,265.111420 
	C300.956635,265.899353 304.315125,266.747437 304.571045,268.068695 
	C304.979828,270.179108 303.292236,272.695557 302.490967,275.040344 
	C302.056305,274.895966 301.621674,274.751617 301.187012,274.607269 
	C301.748779,272.848175 302.310547,271.089081 302.862549,269.360535 
	C297.553040,266.705475 293.921265,267.264404 290.958038,271.413086 
	C292.345673,272.082397 293.652954,272.712952 294.981812,273.658203 
	C295.003418,273.972931 295.014832,273.927368 295.014832,273.927368 
z"/>
<path fill="#95C653" opacity="1.000000" stroke="none" 
	d="
M153.773315,245.043671 
	C151.046295,244.582642 147.331146,246.410889 147.152649,242.960983 
	C150.448044,242.284409 153.304413,242.389374 155.237076,241.104706 
	C157.130722,239.845963 156.013794,234.974854 153.757477,232.938934 
	C154.812729,232.148849 155.821823,231.393311 158.153854,229.647278 
	C158.153854,235.054321 158.279160,239.449814 157.980194,243.816269 
	C157.946442,244.309296 155.519745,244.638474 153.773315,245.043671 
z"/>
<path fill="#9CCD50" opacity="1.000000" stroke="none" 
	d="
M241.519318,151.682861 
	C245.174332,152.718063 248.474762,153.582550 252.467896,154.628464 
	C245.492935,155.817352 239.534653,154.551865 234.237579,151.281509 
	C232.550720,150.240082 231.635239,147.382233 231.166443,145.184937 
	C230.947052,144.156555 232.628250,142.722672 233.535995,141.338486 
	C233.987366,144.255142 233.635223,146.820251 234.751511,148.026688 
	C236.316650,149.718307 238.974380,150.399002 241.519318,151.682861 
z"/>
<path fill="#9ECF4F" opacity="1.000000" stroke="none" 
	d="
M250.904449,278.940460 
	C250.518463,276.839874 250.221130,275.121857 249.884811,273.178558 
	C250.763794,273.377808 251.288986,273.366425 251.350296,273.529480 
	C254.421951,281.697845 256.276276,282.088440 262.696533,275.768372 
	C264.580994,273.913330 266.306030,271.896332 268.104126,269.953522 
	C268.575714,270.398285 269.047302,270.843018 269.518921,271.287781 
	C265.770477,275.093445 262.393738,279.407562 258.137604,282.518646 
	C255.482452,284.459503 252.484787,282.463654 250.904449,278.940460 
z"/>
<path fill="#97C854" opacity="1.000000" stroke="none" 
	d="
M303.054810,239.183533 
	C300.180847,229.990250 297.367096,221.145844 294.945038,213.532715 
	C301.289978,219.971771 304.643890,229.008118 303.803101,239.631042 
	C303.797913,239.696793 303.605011,239.816132 303.536407,239.794449 
	C303.383606,239.746185 303.253998,239.624313 303.054810,239.183533 
z"/>
<path fill="#9ED04E" opacity="1.000000" stroke="none" 
	d="
M215.624664,199.977676 
	C216.169922,199.990356 216.356689,199.986618 216.822845,199.962677 
	C217.926514,198.800980 218.750809,197.659485 219.575089,196.517990 
	C219.872253,196.676666 220.169418,196.835342 220.466583,196.994003 
	C219.397583,198.695282 218.686752,201.028778 217.147842,201.900574 
	C215.884796,202.616089 212.726593,202.253525 211.983398,201.227722 
	C208.729797,196.737000 205.227478,194.003021 199.255753,197.395065 
	C206.173569,192.231384 208.350555,192.564270 213.283371,198.665924 
	C213.755692,199.250183 214.596436,199.536591 215.624664,199.977676 
z"/>
<path fill="#9FD14F" opacity="1.000000" stroke="none" 
	d="
M283.991272,257.397156 
	C280.681488,266.098114 277.593750,267.805054 270.551270,264.163269 
	C276.263458,264.600739 280.178589,263.146729 281.018372,257.936523 
	C281.679352,253.835876 281.758179,249.641403 282.090393,245.552155 
	C285.745361,248.498108 283.710754,252.996735 283.991272,257.397156 
z"/>
<path fill="#95C653" opacity="1.000000" stroke="none" 
	d="
M316.302307,195.182312 
	C308.903595,200.134094 310.565094,207.346451 311.129913,215.385178 
	C307.480499,208.632568 306.999359,202.992096 310.528778,197.503876 
	C312.742615,194.061401 316.086639,192.423462 320.989166,193.213409 
	C319.160889,193.966217 317.896942,194.486649 316.302307,195.182312 
z"/>
<path fill="#9DCF4E" opacity="1.000000" stroke="none" 
	d="
M201.117462,153.229858 
	C200.335342,153.752518 199.895508,154.225281 199.455658,154.698044 
	C199.220032,154.563019 198.984406,154.427994 198.748779,154.292969 
	C199.370224,153.209778 199.760803,151.764297 200.693680,151.169800 
	C201.323425,150.768494 203.203934,151.217728 203.686081,151.889008 
	C205.799301,154.831146 208.354950,154.534378 211.533752,154.151108 
	C216.000153,153.612595 220.580002,154.015015 225.077942,154.357147 
	C219.618073,155.307220 214.176788,156.768921 208.689651,156.968201 
	C206.328659,157.053970 203.872604,154.522415 201.117462,153.229858 
z"/>
<path fill="#9CCD50" opacity="1.000000" stroke="none" 
	d="
M170.790955,196.197296 
	C169.441833,194.495514 168.321411,193.065079 166.934875,191.294937 
	C168.057251,190.041534 169.151184,188.819916 169.843109,188.047211 
	C170.813553,190.360275 171.178452,192.674454 172.528168,193.929306 
	C173.399460,194.739304 176.353973,194.645020 177.222321,193.788086 
	C178.342056,192.683060 178.309769,190.410660 178.789368,188.580963 
	C179.488434,189.505859 180.585098,190.956818 181.932877,192.740005 
	C179.454376,194.791290 177.064163,196.769516 174.247696,199.100525 
	C173.188889,198.237259 172.104263,197.352951 170.790955,196.197296 
z"/>
<path fill="#9BCC50" opacity="1.000000" stroke="none" 
	d="
M172.721832,163.786224 
	C179.899399,167.379959 186.088318,162.805527 192.660660,162.526199 
	C186.588547,164.417999 181.545837,170.333328 174.113785,166.769318 
	C173.201004,166.331589 171.547791,167.437927 169.436234,168.067810 
	C170.322784,166.731537 171.333771,165.207748 172.721832,163.786224 
z"/>
<path fill="#95C653" opacity="1.000000" stroke="none" 
	d="
M300.038055,238.486801 
	C300.038452,239.688782 300.038452,240.504440 300.038452,241.727188 
	C297.347107,234.267502 294.802338,227.214020 292.155670,219.878204 
	C297.379211,224.834045 299.720703,230.973526 300.038055,238.486801 
z"/>
<path fill="#97C854" opacity="1.000000" stroke="none" 
	d="
M179.451385,267.020111 
	C179.809662,268.262390 179.969284,269.218628 180.128922,270.174835 
	C179.642075,270.312683 179.155212,270.450500 178.668350,270.588348 
	C176.681061,264.072845 174.693771,257.557343 172.706482,251.041824 
	C173.261032,250.868088 173.815582,250.694351 174.370132,250.520615 
	C175.997681,255.925095 177.625214,261.329590 179.451385,267.020111 
z"/>
<path fill="#A0D24E" opacity="1.000000" stroke="none" 
	d="
M318.012451,208.687576 
	C317.589844,216.389420 317.056763,223.770691 316.523651,231.151978 
	C315.246735,223.486877 312.606079,215.750381 318.012451,208.687576 
z"/>
<path fill="#95C653" opacity="1.000000" stroke="none" 
	d="
M217.805847,293.571228 
	C218.319305,291.337799 218.733490,289.477936 219.147659,287.618042 
	C219.559479,287.697083 219.971283,287.776123 220.383102,287.855164 
	C219.865387,291.052612 219.635590,294.342590 218.655502,297.391357 
	C218.359268,298.312836 215.979263,298.983612 214.561432,298.969971 
	C213.695053,298.961639 212.241318,297.494080 212.143723,296.566956 
	C212.032181,295.507111 213.132599,294.319733 213.986328,292.635498 
	C214.477142,294.662903 214.747589,295.780060 215.018036,296.897247 
	C215.914230,295.913055 216.810410,294.928894 217.805847,293.571228 
z"/>
<path fill="#97C854" opacity="1.000000" stroke="none" 
	d="
M315.990784,235.110382 
	C316.184937,240.381470 319.970306,238.762817 323.708405,239.238968 
	C320.481873,240.354431 318.226257,241.134232 315.033295,242.238098 
	C314.211395,237.291550 313.432098,232.601440 312.652802,227.911331 
	C312.973389,227.828690 313.293945,227.746048 313.614532,227.663406 
	C314.391968,230.009979 315.169434,232.356537 315.990784,235.110382 
z"/>
<path fill="#9BCC50" opacity="1.000000" stroke="none" 
	d="
M251.189194,193.389328 
	C251.538788,192.993546 251.769913,192.786774 251.784454,192.801025 
	C253.382919,194.367462 251.779861,201.513123 249.651550,201.918564 
	C247.277252,202.370850 244.843353,202.510345 242.192993,202.492493 
	C245.780228,200.149536 250.445663,198.886337 251.189194,193.389328 
z"/>
<path fill="#99CA50" opacity="1.000000" stroke="none" 
	d="
M244.790344,187.282913 
	C246.046371,192.625061 241.271667,197.296738 236.590286,196.799774 
	C238.945099,194.013824 241.726624,190.723038 244.790344,187.282913 
z"/>
<path fill="#9CCD50" opacity="1.000000" stroke="none" 
	d="
M302.591339,280.925201 
	C302.760071,281.175659 302.553986,281.466583 302.120880,281.903320 
	C298.693390,281.215515 295.492920,280.381805 291.733185,279.402435 
	C293.465393,277.196716 294.548584,275.817444 295.323303,274.182739 
	C295.014832,273.927368 295.003418,273.972931 294.981842,273.978943 
	C295.568329,275.166260 296.176422,276.347565 296.784515,277.528870 
	C296.463196,277.761749 296.141876,277.994629 295.820557,278.227478 
	C297.952545,279.140228 300.084534,280.052948 302.591339,280.925201 
z"/>
<path fill="#9DCE50" opacity="1.000000" stroke="none" 
	d="
M228.167007,178.971222 
	C230.431686,180.379868 232.632217,181.429672 234.908737,182.515717 
	C233.771912,182.819809 231.547363,184.170456 229.978455,183.627304 
	C228.326691,183.055511 226.683136,180.830231 226.225616,179.025757 
	C225.932678,177.870468 227.794708,176.168793 229.670456,175.371918 
	C229.147919,176.452072 228.625381,177.532227 228.167007,178.971222 
z"/>
<path fill="#95C653" opacity="1.000000" stroke="none" 
	d="
M246.220123,318.977051 
	C248.368423,318.093903 250.170456,317.326691 251.972168,316.558685 
	C255.264709,315.155243 257.281860,316.145508 258.317352,320.768860 
	C253.920074,315.242645 250.132904,320.654877 246.216110,319.973969 
	C246.056671,319.946259 245.779785,319.876404 245.774521,319.809204 
	C245.756149,319.574402 245.833023,319.332092 246.220123,318.977051 
z"/>
<path fill="#90BF54" opacity="1.000000" stroke="none" 
	d="
M138.013763,245.039001 
	C137.869797,241.923813 137.725830,238.808624 137.352112,235.367493 
	C137.598618,231.964417 138.074890,228.887314 138.356445,225.403320 
	C138.461288,227.063339 138.813202,229.124313 139.048477,231.198502 
	C139.430511,234.566727 139.736160,237.943619 139.728195,241.739746 
	C138.926147,243.121429 138.469955,244.080215 138.013763,245.039001 
z"/>
<path fill="#9ECF4F" opacity="1.000000" stroke="none" 
	d="
M273.818237,315.470123 
	C277.243286,313.360992 280.668335,311.251862 284.067688,309.580322 
	C284.041992,310.017914 283.985352,309.980469 283.785217,310.243530 
	C281.095734,312.350861 278.606323,314.195099 275.904114,316.122864 
	C275.418213,316.356506 275.196167,316.561798 274.783447,316.903381 
	C274.378876,317.032806 274.215973,317.081207 273.996338,316.714478 
	C273.899170,316.022949 273.858704,315.746552 273.818237,315.470123 
z"/>
<path fill="#97C854" opacity="1.000000" stroke="none" 
	d="
M288.227509,284.210114 
	C286.515747,286.357819 284.803955,288.505524 283.092194,290.653198 
	C282.700714,290.360352 282.309265,290.067535 281.917816,289.774689 
	C283.562347,287.731018 285.206848,285.687378 287.302551,283.674744 
	C287.911621,283.873901 288.069580,284.041992 288.227509,284.210114 
z"/>
<path fill="#0E3237" opacity="1.000000" stroke="none" 
	d="
M302.764893,288.846680 
	C301.189972,291.612946 299.422913,294.250427 297.320709,296.966614 
	C298.478302,294.169861 299.971039,291.294403 301.732269,288.208130 
	C302.141998,288.276764 302.332672,288.516968 302.764893,288.846680 
z"/>
<path fill="#9FD14F" opacity="1.000000" stroke="none" 
	d="
M283.053070,318.263367 
	C282.576874,317.906494 282.340759,317.380066 282.051880,316.425964 
	C281.999084,315.998230 281.992706,315.985382 282.202362,315.850586 
	C282.670135,315.493134 282.856232,315.221191 283.108856,314.623749 
	C284.226898,313.648560 285.206451,312.949646 286.185974,312.250702 
	C286.362549,312.412720 286.539093,312.574707 286.980713,312.979431 
	C285.928284,314.846069 284.610718,316.469940 283.053070,318.263367 
z"/>
<path fill="#9ECF4F" opacity="1.000000" stroke="none" 
	d="
M170.735565,175.747696 
	C171.698425,173.980545 172.661301,172.213409 173.624161,170.446259 
	C174.032196,170.624435 174.440231,170.802597 174.848267,170.980774 
	C173.940582,172.757019 173.032913,174.533279 171.657883,176.273621 
	C171.038895,176.074371 170.887238,175.911041 170.735565,175.747696 
z"/>
<path fill="#9ECF4F" opacity="1.000000" stroke="none" 
	d="
M168.147018,180.288879 
	C167.435699,180.637741 167.028107,180.737213 166.438461,180.680786 
	C167.551102,179.045807 168.845810,177.566711 170.438049,175.917664 
	C170.887238,175.911041 171.038895,176.074371 171.401428,176.497772 
	C170.558487,177.851715 169.504623,178.945602 168.147018,180.288879 
z"/>
<path fill="#97C854" opacity="1.000000" stroke="none" 
	d="
M287.537201,283.435913 
	C288.052490,281.405640 288.784271,279.645203 289.516052,277.884796 
	C289.748688,277.917816 289.981323,277.950806 290.213959,277.983826 
	C289.752838,279.913544 289.291718,281.843231 288.529053,283.991516 
	C288.069580,284.041992 287.911621,283.873901 287.537201,283.435913 
z"/>
<path fill="#9BCC50" opacity="1.000000" stroke="none" 
	d="
M194.983780,273.997498 
	C193.936020,272.149750 193.116119,270.068970 192.296204,267.988190 
	C192.678940,267.837189 193.061661,267.686218 193.444382,267.535248 
	C194.033615,269.259369 194.622833,270.983459 195.425018,272.989502 
	C195.495880,273.435760 195.353760,273.600128 194.983780,273.997498 
z"/>
<path fill="#9FD14F" opacity="1.000000" stroke="none" 
	d="
M280.035187,318.305878 
	C280.675720,318.117920 281.204956,318.239105 282.076294,318.591370 
	C281.274658,319.660858 280.130859,320.499237 278.987061,321.337616 
	C278.765961,321.080383 278.544861,320.823151 278.323792,320.565918 
	C278.857147,319.915619 279.390503,319.265320 280.035187,318.305878 
z"/>
<path fill="#99CA50" opacity="1.000000" stroke="none" 
	d="
M219.348221,336.144470 
	C221.363937,335.991089 223.720123,335.983582 226.516754,335.980835 
	C224.534363,336.087219 222.111526,336.188812 219.348221,336.144470 
z"/>
<path fill="#9BCC50" opacity="1.000000" stroke="none" 
	d="
M147.952576,288.115082 
	C146.784531,287.926208 145.616486,287.737366 144.237122,287.256531 
	C144.025787,286.964569 144.014709,287.010956 144.315002,287.045807 
	C146.094269,287.059845 147.499817,283.666351 148.826050,287.128113 
	C148.384583,287.553131 148.168579,287.834106 147.952576,288.115082 
z"/>
<path fill="#9CCD50" opacity="1.000000" stroke="none" 
	d="
M273.536774,315.579773 
	C273.858704,315.746552 273.899170,316.022949 273.993042,316.920166 
	C274.046509,317.541046 274.127075,317.944489 274.127075,317.944489 
	C273.538330,318.595581 272.949554,319.246674 272.118439,320.165771 
	C272.059174,319.044556 272.018372,318.273010 271.967255,317.179321 
	C272.389709,316.467957 272.822510,316.078705 273.536774,315.579773 
z"/>
<path fill="#90BF54" opacity="1.000000" stroke="none" 
	d="
M141.721436,231.943588 
	C141.551620,232.701874 141.158401,233.538193 140.765167,234.374496 
	C140.702972,233.711807 140.640778,233.049103 140.803497,232.174667 
	C141.028427,231.962921 141.498032,232.021606 141.721436,231.943588 
z"/>
<path fill="#9ECF4F" opacity="1.000000" stroke="none" 
	d="
M165.212799,181.476837 
	C165.614868,181.601944 165.776352,181.829575 165.866241,182.082626 
	C165.905090,182.192001 165.796097,182.353867 165.645325,182.667740 
	C164.727829,183.128098 163.919312,183.412628 163.054962,183.341705 
	C162.999161,182.986252 162.957352,183.031708 162.937057,183.056366 
	C163.592239,182.583893 164.267700,182.086777 165.212799,181.476837 
z"/>
<path fill="#9CCD50" opacity="1.000000" stroke="none" 
	d="
M148.002319,288.374023 
	C148.168579,287.834106 148.384583,287.553131 149.056351,287.278442 
	C149.701797,287.790375 149.891464,288.296021 150.052765,289.098236 
	C150.019455,289.593353 150.014542,289.791901 150.009613,289.990479 
	C150.009613,289.990479 149.592010,290.235992 149.364944,290.322937 
	C148.775940,289.817566 148.414001,289.225281 148.002319,288.374023 
z"/>
<path fill="#99CA50" opacity="1.000000" stroke="none" 
	d="
M268.085693,337.652527 
	C267.960754,336.968781 267.963226,336.060455 267.968384,334.811707 
	C268.051788,335.456787 268.132477,336.442383 268.085693,337.652527 
z"/>
<path fill="#90BF54" opacity="1.000000" stroke="none" 
	d="
M136.746292,223.241943 
	C137.032913,223.604767 137.025360,223.961700 137.017426,224.586380 
	C136.471634,224.723648 135.926254,224.593185 135.380859,224.462708 
	C135.737961,224.053833 136.095047,223.644958 136.746292,223.241943 
z"/>
<path fill="#9CCD50" opacity="1.000000" stroke="none" 
	d="
M236.627502,329.108765 
	C235.889175,329.440369 234.808960,329.725159 233.379166,330.009277 
	C234.114944,329.693054 235.200287,329.377533 236.627502,329.108765 
z"/>
<path fill="#A0D24E" opacity="1.000000" stroke="none" 
	d="
M156.160065,303.673096 
	C155.228699,303.195282 154.604126,302.489197 153.979553,301.783081 
	C154.208633,301.583588 154.437729,301.384094 154.666809,301.184570 
	C155.266815,301.937988 155.866837,302.691406 156.160065,303.673096 
z"/>
<path fill="#9CCD50" opacity="1.000000" stroke="none" 
	d="
M312.191467,267.742767 
	C312.132416,267.172699 312.266327,266.352783 312.600891,265.291321 
	C312.662445,265.864166 312.523438,266.678558 312.191467,267.742767 
z"/>
<path fill="#9CCD50" opacity="1.000000" stroke="none" 
	d="
M241.414520,330.872681 
	C241.772064,330.558289 242.515732,330.270996 243.442947,330.258270 
	C243.743805,330.704956 243.861130,330.877136 243.978470,331.049316 
	C243.978470,331.049316 244.011353,330.997620 244.037979,330.982544 
	C243.309952,330.944885 242.555283,330.922363 241.414520,330.872681 
z"/>
<path fill="#9CCD50" opacity="1.000000" stroke="none" 
	d="
M262.018433,321.795959 
	C262.087402,321.961426 261.668213,321.988770 261.458313,321.996674 
	C261.319702,321.638275 261.390991,321.272003 261.462311,320.905701 
	C261.624695,321.147308 261.787048,321.388885 262.018433,321.795959 
z"/>
<path fill="#9CCD50" opacity="1.000000" stroke="none" 
	d="
M291.467438,188.831024 
	C291.000366,188.439987 290.533295,188.048965 289.395630,187.096542 
	C290.774933,187.242645 291.298462,187.298096 291.792023,187.848297 
	C291.663849,188.505692 291.565643,188.668350 291.467438,188.831024 
z"/>
<path fill="#9CCD50" opacity="1.000000" stroke="none" 
	d="
M265.722778,320.158142 
	C265.801239,320.423492 265.568420,320.634735 265.057159,320.866882 
	C265.044495,320.687012 265.255432,320.425720 265.722778,320.158142 
z"/>
<path fill="#9CCD50" opacity="1.000000" stroke="none" 
	d="
M291.937439,188.118408 
	C292.451019,187.949753 292.744385,188.095810 293.106964,188.552948 
	C293.048340,188.905014 292.875610,189.036118 292.423340,189.335068 
	C291.965942,189.382919 291.805176,189.243256 291.564453,188.957474 
	C291.565643,188.668350 291.663849,188.505692 291.937439,188.118408 
z"/>
<path fill="#9CCD50" opacity="1.000000" stroke="none" 
	d="
M250.710236,326.214752 
	C250.763046,326.478943 250.503036,326.673187 249.948364,326.849792 
	C249.956314,326.676208 250.204208,326.447113 250.710236,326.214752 
z"/>
<path fill="#9ECF4F" opacity="1.000000" stroke="none" 
	d="
M284.074158,310.028809 
	C283.806488,309.501495 283.506683,308.963287 283.858765,308.448303 
	C284.680878,308.655182 284.851074,308.838837 284.919861,309.249878 
	C284.613312,309.765106 284.335602,309.932831 283.985352,309.980469 
	C283.985352,309.980469 284.041992,310.017914 284.074158,310.028809 
z"/>
<path fill="#9ECF4F" opacity="1.000000" stroke="none" 
	d="
M284.326324,308.144287 
	C284.326843,307.514008 284.511658,307.210907 285.130554,307.162781 
	C285.722351,307.624847 285.880096,307.831940 285.945435,308.272217 
	C285.575745,308.677704 285.298492,308.850098 285.021240,309.022461 
	C284.851074,308.838837 284.680878,308.655182 284.326324,308.144287 
z"/>
<path fill="#9ECF4F" opacity="1.000000" stroke="none" 
	d="
M285.410004,307.059143 
	C285.499023,306.375763 285.742706,306.050964 286.347076,306.074585 
	C286.817627,306.627716 286.927429,306.832489 286.946350,307.269836 
	C286.657349,307.794708 286.384827,307.973602 286.037872,308.039062 
	C285.880096,307.831940 285.722351,307.624847 285.410004,307.059143 
z"/>
<path fill="#9ECF4F" opacity="1.000000" stroke="none" 
	d="
M286.683350,306.075317 
	C286.658875,305.727631 286.735504,305.647278 286.754089,305.628510 
	C286.997375,305.638763 287.222015,305.667816 287.650238,306.098511 
	C287.656006,306.792267 287.383789,306.971283 287.037262,307.037262 
	C286.927429,306.832489 286.817627,306.627716 286.683350,306.075317 
z"/>
<path fill="#042830" opacity="1.000000" stroke="none" 
	d="
M70.754440,269.807983 
	C58.943756,278.282959 45.683941,273.644470 42.967270,259.799530 
	C41.821152,253.958603 42.171055,247.518066 43.271786,241.616959 
	C44.770565,233.581879 51.121277,229.173767 59.056534,229.054825 
	C67.149803,228.933502 73.424767,233.004181 75.545052,240.839264 
	C78.277306,250.935669 78.479027,260.925629 70.754440,269.807983 
z"/>
<path fill="#022630" opacity="1.000000" stroke="none" 
	d="
M358.330994,225.244965 
	C358.597839,225.250397 358.660217,225.463776 358.722595,225.677155 
	C358.523895,225.602402 358.325226,225.527649 358.330994,225.244965 
z"/>
<path fill="#022630" opacity="1.000000" stroke="none" 
	d="
M150.081146,288.801666 
	C149.891464,288.296021 149.701797,287.790375 149.281830,287.134399 
	C147.499817,283.666351 146.094269,287.059845 144.293579,287.056427 
	C145.585281,282.500793 143.358795,278.452301 142.550858,274.168152 
	C140.785980,264.809814 139.514252,255.358475 138.027405,245.492065 
	C138.469955,244.080215 138.926147,243.121429 139.695145,242.070648 
	C140.534103,258.318268 143.108658,274.137543 151.874054,288.960724 
	C151.641769,289.637817 151.335938,289.757172 151.030106,289.876526 
	C151.030106,289.876526 151.004486,289.943268 150.966766,289.687653 
	C150.646408,289.221924 150.363770,289.011780 150.081146,288.801666 
z"/>
<path fill="#9BCC50" opacity="1.000000" stroke="none" 
	d="
M151.166306,290.082825 
	C151.335938,289.757172 151.641769,289.637817 152.049774,289.273804 
	C152.284729,289.454102 152.417526,289.879120 152.550323,290.304108 
	C152.134384,290.299133 151.718445,290.294128 151.166306,290.082825 
z"/>
<path fill="#9BCC50" opacity="1.000000" stroke="none" 
	d="
M150.052765,289.098236 
	C150.363770,289.011780 150.646408,289.221924 151.002396,289.690552 
	C150.898163,289.961273 150.720581,289.973450 150.276306,289.988037 
	C150.014542,289.791901 150.019455,289.593353 150.052765,289.098236 
z"/>
<path fill="#0E3237" opacity="1.000000" stroke="none" 
	d="
M286.946350,307.269836 
	C287.383789,306.971283 287.656006,306.792267 287.944824,306.267822 
	C289.224426,305.132294 290.413055,304.229126 291.820068,303.660156 
	C290.181061,306.544312 288.323700,309.094269 286.326172,311.947449 
	C285.206451,312.949646 284.226898,313.648560 282.876038,314.734802 
	C282.334015,315.409882 282.163361,315.697632 281.992706,315.985382 
	C281.992706,315.985382 281.999084,315.998230 281.992126,315.995514 
	C279.617279,316.678833 277.249420,317.364899 274.504333,317.997742 
	C274.127075,317.944489 274.046509,317.541046 274.049805,317.335327 
	C274.215973,317.081207 274.378876,317.032806 275.033386,316.903015 
	C275.824799,316.638428 276.022125,316.377655 276.116913,316.039337 
	C278.606323,314.195099 281.095734,312.350861 283.785217,310.243530 
	C284.335602,309.932831 284.613312,309.765106 284.919861,309.249878 
	C285.298492,308.850098 285.575745,308.677704 285.945435,308.272217 
	C286.384827,307.973602 286.657349,307.794708 286.946350,307.269836 
z"/>
<path fill="#9CCD50" opacity="1.000000" stroke="none" 
	d="
M263.990723,323.278137 
	C264.659760,323.071045 265.209564,323.062531 265.759338,323.054016 
	C265.636749,323.461731 265.514130,323.869415 265.391510,324.277130 
	C264.884827,324.010315 264.378113,323.743530 263.990723,323.278137 
z"/>
<path fill="#022630" opacity="1.000000" stroke="none" 
	d="
M244.319122,331.034546 
	C243.861130,330.877136 243.743805,330.704956 243.753738,330.247375 
	C244.654221,330.019318 245.427460,330.076660 247.407196,330.223511 
	C245.746506,330.704803 245.203140,330.862274 244.319122,331.034546 
z"/>
<path fill="#9CCD50" opacity="1.000000" stroke="none" 
	d="
M250.308655,329.010254 
	C250.412857,328.876984 250.517120,328.861969 250.621384,328.846924 
	C250.517166,328.940796 250.412933,329.034637 250.308655,329.010254 
z"/>
<path fill="#072B34" opacity="1.000000" stroke="none" 
	d="
M455.214233,313.339447 
	C455.606018,311.456818 455.924835,310.005432 456.360901,308.020111 
	C459.157349,308.020111 462.098877,307.991150 465.039551,308.027527 
	C468.623413,308.071808 471.922028,309.084778 472.623993,313.007416 
	C473.338989,317.003021 471.455627,320.633270 467.634918,321.719788 
	C463.303589,322.951508 458.610046,322.909637 453.610107,323.473816 
	C454.218048,319.621124 454.679626,316.695923 455.214233,313.339447 
z"/>
<path fill="#072B34" opacity="1.000000" stroke="none" 
	d="
M471.949646,304.991760 
	C467.076508,305.419586 462.166443,305.854889 456.601257,306.348267 
	C457.515717,300.781891 458.302246,295.994141 459.162018,290.760620 
	C464.448334,292.036774 470.544281,288.434814 474.126221,294.217560 
	C476.488129,298.030701 474.047089,301.501465 471.623962,304.759644 
	C471.906708,305.074371 471.912720,304.999237 471.949646,304.991760 
z"/>
<path fill="#062A33" opacity="1.000000" stroke="none" 
	d="
M444.870514,304.732330 
	C441.724548,319.924438 434.997742,324.380127 418.136353,322.630798 
	C419.938080,312.203033 421.736603,301.794067 423.516724,291.491547 
	C438.459808,289.466309 444.549652,293.194916 444.870514,304.732330 
z"/>
<path fill="#0E3237" opacity="1.000000" stroke="none" 
	d="
M294.699921,299.726624 
	C294.242584,301.279480 293.442230,302.575134 292.317810,303.957458 
	C292.781464,302.519257 293.569183,300.994324 294.699921,299.726624 
z"/>
<path fill="#0E3237" opacity="1.000000" stroke="none" 
	d="
M295.638672,298.081726 
	C295.906952,298.566040 295.796234,299.176727 295.340332,299.917175 
	C295.083313,299.433990 295.171478,298.821075 295.638672,298.081726 
z"/>
<path fill="#0E3237" opacity="1.000000" stroke="none" 
	d="
M296.706909,296.837097 
	C296.902649,297.405609 296.763550,297.833893 296.293549,298.146210 
	C296.099121,297.585785 296.235626,297.141357 296.706909,296.837097 
z"/>
<path fill="#022630" opacity="1.000000" stroke="none" 
	d="
M253.986343,180.290695 
	C254.821335,180.625351 255.696777,181.275284 256.280884,182.072693 
	C255.335266,181.682098 254.681046,181.144043 253.986343,180.290695 
z"/>
<path fill="#022630" opacity="1.000000" stroke="none" 
	d="
M261.761200,187.301270 
	C262.581055,187.625946 263.190674,188.294250 263.396118,189.258636 
	C262.511627,188.918106 262.031311,188.281494 261.761200,187.301270 
z"/>
<path fill="#022630" opacity="1.000000" stroke="none" 
	d="
M260.868896,185.846191 
	C261.317322,185.740417 261.664337,186.043762 262.020996,186.696228 
	C261.609589,186.781998 261.188568,186.518646 260.868896,185.846191 
z"/>
<path fill="#9CCD50" opacity="1.000000" stroke="none" 
	d="
M275.904114,316.122864 
	C276.022125,316.377655 275.824799,316.638428 275.275024,316.821960 
	C275.196167,316.561798 275.418213,316.356506 275.904114,316.122864 
z"/>
<path fill="#9ECF4F" opacity="1.000000" stroke="none" 
	d="
M282.202362,315.850586 
	C282.163361,315.697632 282.334015,315.409882 282.737488,315.011047 
	C282.856232,315.221191 282.670135,315.493134 282.202362,315.850586 
z"/>
</svg>